<svg xmlns="http://www.w3.org/2000/svg" xmlns:xlink="http://www.w3.org/1999/xlink" width="2000" zoomAndPan="magnify" viewBox="0 0 1500 1499.999933" height="2000" preserveAspectRatio="xMidYMid meet" version="1.0"><defs><g/><clipPath id="29c5443bed"><rect x="0" width="1378" y="0" height="218"/></clipPath><clipPath id="8733c8c5d8"><rect x="0" width="1432" y="0" height="66"/></clipPath></defs><g transform="matrix(1, 0, 0, 1, 81, 469)"><g clip-path="url(#29c5443bed)"><g fill="#0b0b0b" fill-opacity="0.4"><g transform="translate(1.585485, 177.834719)"><g><path d="M 48.421875 -112.1875 C 44.515625 -111.96875 41.660156 -111.53125 39.859375 -110.875 C 38.066406 -110.226562 36.84375 -108.976562 36.1875 -107.125 C 35.539062 -105.28125 35.21875 -102.289062 35.21875 -98.15625 L 35.21875 -17.28125 C 35.21875 -13.15625 35.539062 -10.164062 36.1875 -8.3125 C 36.84375 -6.46875 38.066406 -5.21875 39.859375 -4.5625 C 41.660156 -3.914062 44.515625 -3.484375 48.421875 -3.265625 L 48.421875 0 C 43.421875 -0.320312 36.519531 -0.484375 27.71875 -0.484375 C 18.375 -0.484375 11.414062 -0.320312 6.84375 0 L 6.84375 -3.265625 C 10.757812 -3.484375 13.613281 -3.914062 15.40625 -4.5625 C 17.195312 -5.21875 18.421875 -6.46875 19.078125 -8.3125 C 19.734375 -10.164062 20.0625 -13.15625 20.0625 -17.28125 L 20.0625 -98.15625 C 20.0625 -102.289062 19.734375 -105.28125 19.078125 -107.125 C 18.421875 -108.976562 17.195312 -110.226562 15.40625 -110.875 C 13.613281 -111.53125 10.757812 -111.96875 6.84375 -112.1875 L 6.84375 -115.453125 C 11.414062 -115.117188 18.375 -114.953125 27.71875 -114.953125 C 36.414062 -114.953125 43.316406 -115.117188 48.421875 -115.453125 Z M 48.421875 -112.1875 "/></g></g></g><g fill="#0b0b0b" fill-opacity="0.4"><g transform="translate(60.12447, 177.834719)"><g/></g></g><g fill="#0b0b0b" fill-opacity="0.4"><g transform="translate(103.988799, 177.834719)"><g><path d="M 96.53125 -115.453125 C 95.769531 -107.734375 95.390625 -100.773438 95.390625 -94.578125 C 95.390625 -89.140625 95.550781 -84.679688 95.875 -81.203125 L 92.125 -81.203125 C 91.257812 -89.578125 90.171875 -95.800781 88.859375 -99.875 C 87.554688 -103.945312 85.273438 -106.9375 82.015625 -108.84375 C 78.753906 -110.75 73.753906 -111.703125 67.015625 -111.703125 L 58.21875 -111.703125 L 58.21875 -18.921875 C 58.21875 -14.347656 58.648438 -11.03125 59.515625 -8.96875 C 60.390625 -6.90625 61.910156 -5.492188 64.078125 -4.734375 C 66.253906 -3.972656 69.789062 -3.484375 74.6875 -3.265625 L 74.6875 0 C 69.03125 -0.320312 61.039062 -0.484375 50.71875 -0.484375 C 39.84375 -0.484375 31.796875 -0.320312 26.578125 0 L 26.578125 -3.265625 C 31.472656 -3.484375 35.003906 -3.972656 37.171875 -4.734375 C 39.347656 -5.492188 40.867188 -6.90625 41.734375 -8.96875 C 42.609375 -11.03125 43.046875 -14.347656 43.046875 -18.921875 L 43.046875 -111.703125 L 34.25 -111.703125 C 27.507812 -111.703125 22.503906 -110.75 19.234375 -108.84375 C 15.972656 -106.9375 13.691406 -103.945312 12.390625 -99.875 C 11.085938 -95.800781 10 -89.578125 9.125 -81.203125 L 5.375 -81.203125 C 5.707031 -84.679688 5.875 -89.140625 5.875 -94.578125 C 5.875 -100.773438 5.492188 -107.734375 4.734375 -115.453125 C 13.753906 -115.117188 29.082031 -114.953125 50.71875 -114.953125 C 72.238281 -114.953125 87.507812 -115.117188 96.53125 -115.453125 Z M 96.53125 -115.453125 "/></g></g></g><g fill="#0b0b0b" fill-opacity="0.4"><g transform="translate(208.508443, 177.834719)"><g><path d="M 116.59375 -112.1875 C 112.675781 -111.96875 109.820312 -111.53125 108.03125 -110.875 C 106.238281 -110.226562 105.015625 -108.976562 104.359375 -107.125 C 103.703125 -105.28125 103.375 -102.289062 103.375 -98.15625 L 103.375 -17.28125 C 103.375 -13.15625 103.703125 -10.164062 104.359375 -8.3125 C 105.015625 -6.46875 106.238281 -5.21875 108.03125 -4.5625 C 109.820312 -3.914062 112.675781 -3.484375 116.59375 -3.265625 L 116.59375 0 C 112.019531 -0.320312 105.0625 -0.484375 95.71875 -0.484375 C 86.914062 -0.484375 80.015625 -0.320312 75.015625 0 L 75.015625 -3.265625 C 78.921875 -3.484375 81.769531 -3.914062 83.5625 -4.5625 C 85.363281 -5.21875 86.585938 -6.46875 87.234375 -8.3125 C 87.890625 -10.164062 88.21875 -13.15625 88.21875 -17.28125 L 88.21875 -56.421875 L 35.21875 -56.421875 L 35.21875 -17.28125 C 35.21875 -13.15625 35.539062 -10.164062 36.1875 -8.3125 C 36.84375 -6.46875 38.066406 -5.21875 39.859375 -4.5625 C 41.660156 -3.914062 44.515625 -3.484375 48.421875 -3.265625 L 48.421875 0 C 43.421875 -0.320312 36.519531 -0.484375 27.71875 -0.484375 C 18.375 -0.484375 11.414062 -0.320312 6.84375 0 L 6.84375 -3.265625 C 10.757812 -3.484375 13.613281 -3.914062 15.40625 -4.5625 C 17.195312 -5.21875 18.421875 -6.46875 19.078125 -8.3125 C 19.734375 -10.164062 20.0625 -13.15625 20.0625 -17.28125 L 20.0625 -98.15625 C 20.0625 -102.289062 19.734375 -105.28125 19.078125 -107.125 C 18.421875 -108.976562 17.195312 -110.226562 15.40625 -110.875 C 13.613281 -111.53125 10.757812 -111.96875 6.84375 -112.1875 L 6.84375 -115.453125 C 11.414062 -115.117188 18.375 -114.953125 27.71875 -114.953125 C 36.414062 -114.953125 43.316406 -115.117188 48.421875 -115.453125 L 48.421875 -112.1875 C 44.515625 -111.96875 41.660156 -111.53125 39.859375 -110.875 C 38.066406 -110.226562 36.84375 -108.976562 36.1875 -107.125 C 35.539062 -105.28125 35.21875 -102.289062 35.21875 -98.15625 L 35.21875 -59.6875 L 88.21875 -59.6875 L 88.21875 -98.15625 C 88.21875 -102.289062 87.890625 -105.28125 87.234375 -107.125 C 86.585938 -108.976562 85.363281 -110.226562 83.5625 -110.875 C 81.769531 -111.53125 78.921875 -111.96875 75.015625 -112.1875 L 75.015625 -115.453125 C 80.015625 -115.117188 86.914062 -114.953125 95.71875 -114.953125 C 105.0625 -114.953125 112.019531 -115.117188 116.59375 -115.453125 Z M 116.59375 -112.1875 "/></g></g></g><g fill="#0b0b0b" fill-opacity="0.4"><g transform="translate(335.203144, 177.834719)"><g><path d="M 48.421875 -112.1875 C 44.515625 -111.96875 41.660156 -111.53125 39.859375 -110.875 C 38.066406 -110.226562 36.84375 -108.976562 36.1875 -107.125 C 35.539062 -105.28125 35.21875 -102.289062 35.21875 -98.15625 L 35.21875 -17.28125 C 35.21875 -13.15625 35.539062 -10.164062 36.1875 -8.3125 C 36.84375 -6.46875 38.066406 -5.21875 39.859375 -4.5625 C 41.660156 -3.914062 44.515625 -3.484375 48.421875 -3.265625 L 48.421875 0 C 43.421875 -0.320312 36.519531 -0.484375 27.71875 -0.484375 C 18.375 -0.484375 11.414062 -0.320312 6.84375 0 L 6.84375 -3.265625 C 10.757812 -3.484375 13.613281 -3.914062 15.40625 -4.5625 C 17.195312 -5.21875 18.421875 -6.46875 19.078125 -8.3125 C 19.734375 -10.164062 20.0625 -13.15625 20.0625 -17.28125 L 20.0625 -98.15625 C 20.0625 -102.289062 19.734375 -105.28125 19.078125 -107.125 C 18.421875 -108.976562 17.195312 -110.226562 15.40625 -110.875 C 13.613281 -111.53125 10.757812 -111.96875 6.84375 -112.1875 L 6.84375 -115.453125 C 11.414062 -115.117188 18.375 -114.953125 27.71875 -114.953125 C 36.414062 -114.953125 43.316406 -115.117188 48.421875 -115.453125 Z M 48.421875 -112.1875 "/></g></g></g><g fill="#0b0b0b" fill-opacity="0.4"><g transform="translate(393.742129, 177.834719)"><g><path d="M 109.25 -112.1875 C 105.445312 -111.96875 102.617188 -111.394531 100.765625 -110.46875 C 98.921875 -109.550781 97.671875 -108.03125 97.015625 -105.90625 C 96.367188 -103.789062 96.046875 -100.664062 96.046875 -96.53125 L 96.046875 0.8125 L 92.296875 0.8125 L 23.8125 -105.015625 L 23.8125 -18.921875 C 23.8125 -14.679688 24.160156 -11.523438 24.859375 -9.453125 C 25.566406 -7.390625 26.953125 -5.894531 29.015625 -4.96875 C 31.085938 -4.050781 34.296875 -3.484375 38.640625 -3.265625 L 38.640625 0 C 34.734375 -0.320312 29.191406 -0.484375 22.015625 -0.484375 C 15.492188 -0.484375 10.4375 -0.320312 6.84375 0 L 6.84375 -3.265625 C 10.65625 -3.484375 13.484375 -4.050781 15.328125 -4.96875 C 17.171875 -5.894531 18.421875 -7.414062 19.078125 -9.53125 C 19.734375 -11.65625 20.0625 -14.785156 20.0625 -18.921875 L 20.0625 -98.15625 C 20.0625 -102.289062 19.734375 -105.28125 19.078125 -107.125 C 18.421875 -108.976562 17.195312 -110.226562 15.40625 -110.875 C 13.613281 -111.53125 10.757812 -111.96875 6.84375 -112.1875 L 6.84375 -115.453125 C 10.4375 -115.117188 15.492188 -114.953125 22.015625 -114.953125 C 26.898438 -114.953125 31.140625 -115.117188 34.734375 -115.453125 L 92.296875 -26.75 L 92.296875 -96.53125 C 92.296875 -100.769531 91.941406 -103.921875 91.234375 -105.984375 C 90.523438 -108.054688 89.140625 -109.550781 87.078125 -110.46875 C 85.015625 -111.394531 81.804688 -111.96875 77.453125 -112.1875 L 77.453125 -115.453125 C 81.367188 -115.117188 86.914062 -114.953125 94.09375 -114.953125 C 100.613281 -114.953125 105.664062 -115.117188 109.25 -115.453125 Z M 109.25 -112.1875 "/></g></g></g><g fill="#0b0b0b" fill-opacity="0.4"><g transform="translate(512.121188, 177.834719)"><g><path d="M 92.296875 -13.203125 C 94.140625 -10.484375 96.175781 -8.335938 98.40625 -6.765625 C 100.632812 -5.191406 103.378906 -4.023438 106.640625 -3.265625 L 106.640625 0 C 101.421875 -0.320312 94.898438 -0.484375 87.078125 -0.484375 C 81.203125 -0.484375 75.601562 -0.320312 70.28125 0 L 70.28125 -3.265625 C 72.882812 -3.367188 74.785156 -3.691406 75.984375 -4.234375 C 77.179688 -4.785156 77.78125 -5.601562 77.78125 -6.6875 C 77.78125 -7.769531 77.238281 -9.070312 76.15625 -10.59375 L 52.34375 -46.46875 C 49.1875 -51.25 46.519531 -54.375 44.34375 -55.84375 C 42.175781 -57.3125 39.132812 -58.15625 35.21875 -58.375 L 35.21875 -17.28125 C 35.21875 -13.15625 35.539062 -10.164062 36.1875 -8.3125 C 36.84375 -6.46875 38.066406 -5.21875 39.859375 -4.5625 C 41.660156 -3.914062 44.515625 -3.484375 48.421875 -3.265625 L 48.421875 0 C 43.421875 -0.320312 36.519531 -0.484375 27.71875 -0.484375 C 18.375 -0.484375 11.414062 -0.320312 6.84375 0 L 6.84375 -3.265625 C 10.757812 -3.484375 13.613281 -3.914062 15.40625 -4.5625 C 17.195312 -5.21875 18.421875 -6.46875 19.078125 -8.3125 C 19.734375 -10.164062 20.0625 -13.15625 20.0625 -17.28125 L 20.0625 -98.15625 C 20.0625 -102.289062 19.734375 -105.28125 19.078125 -107.125 C 18.421875 -108.976562 17.195312 -110.226562 15.40625 -110.875 C 13.613281 -111.53125 10.757812 -111.96875 6.84375 -112.1875 L 6.84375 -115.453125 C 11.414062 -115.117188 18.375 -114.953125 27.71875 -114.953125 C 36.414062 -114.953125 43.316406 -115.117188 48.421875 -115.453125 L 48.421875 -112.1875 C 44.515625 -111.96875 41.660156 -111.53125 39.859375 -110.875 C 38.066406 -110.226562 36.84375 -108.976562 36.1875 -107.125 C 35.539062 -105.28125 35.21875 -102.289062 35.21875 -98.15625 L 35.21875 -61.640625 C 43.15625 -61.960938 49.351562 -65.003906 53.8125 -70.765625 L 69.46875 -90.65625 C 75.007812 -97.507812 77.78125 -102.726562 77.78125 -106.3125 C 77.78125 -110.125 74.410156 -112.082031 67.671875 -112.1875 L 67.671875 -115.453125 C 73.867188 -115.117188 80.117188 -114.953125 86.421875 -114.953125 C 92.398438 -114.953125 97.019531 -115.117188 100.28125 -115.453125 L 100.28125 -112.1875 C 96.695312 -111.644531 93.328125 -110.472656 90.171875 -108.671875 C 87.015625 -106.878906 83.972656 -104.082031 81.046875 -100.28125 L 54.46875 -66.203125 Z M 92.296875 -13.203125 "/></g></g></g><g fill="#0b0b0b" fill-opacity="0.4"><g transform="translate(622.184636, 177.834719)"><g/></g></g><g fill="#0b0b0b" fill-opacity="0.4"><g transform="translate(666.048964, 177.834719)"><g><path d="M 88.21875 -115.453125 C 87.457031 -107.734375 87.078125 -100.773438 87.078125 -94.578125 C 87.078125 -89.140625 87.238281 -84.679688 87.5625 -81.203125 L 83.8125 -81.203125 C 82.945312 -89.578125 81.859375 -95.800781 80.546875 -99.875 C 79.242188 -103.945312 76.960938 -106.9375 73.703125 -108.84375 C 70.441406 -110.75 65.441406 -111.703125 58.703125 -111.703125 L 48.421875 -111.703125 C 44.515625 -111.703125 41.660156 -111.398438 39.859375 -110.796875 C 38.066406 -110.203125 36.84375 -108.976562 36.1875 -107.125 C 35.539062 -105.28125 35.21875 -102.289062 35.21875 -98.15625 L 35.21875 -58.046875 L 47.125 -58.046875 C 50.925781 -58.046875 53.859375 -58.941406 55.921875 -60.734375 C 57.992188 -62.535156 59.382812 -64.65625 60.09375 -67.09375 C 60.800781 -69.539062 61.367188 -72.613281 61.796875 -76.3125 L 62.296875 -79.578125 L 66.046875 -79.578125 C 65.710938 -75.003906 65.546875 -69.894531 65.546875 -64.25 L 65.546875 -56.421875 C 65.546875 -50.878906 65.875 -43.160156 66.53125 -33.265625 L 62.78125 -33.265625 C 62.664062 -34.023438 62.335938 -36.660156 61.796875 -41.171875 C 61.253906 -45.679688 59.757812 -49.078125 57.3125 -51.359375 C 54.863281 -53.640625 51.46875 -54.78125 47.125 -54.78125 L 35.21875 -54.78125 L 35.21875 -17.28125 C 35.21875 -13.15625 35.648438 -10.164062 36.515625 -8.3125 C 37.390625 -6.46875 38.914062 -5.21875 41.09375 -4.5625 C 43.269531 -3.914062 46.800781 -3.484375 51.6875 -3.265625 L 51.6875 0 C 46.039062 -0.320312 38.050781 -0.484375 27.71875 -0.484375 C 18.375 -0.484375 11.414062 -0.320312 6.84375 0 L 6.84375 -3.265625 C 10.757812 -3.484375 13.613281 -3.914062 15.40625 -4.5625 C 17.195312 -5.21875 18.421875 -6.46875 19.078125 -8.3125 C 19.734375 -10.164062 20.0625 -13.15625 20.0625 -17.28125 L 20.0625 -98.15625 C 20.0625 -102.289062 19.734375 -105.28125 19.078125 -107.125 C 18.421875 -108.976562 17.195312 -110.226562 15.40625 -110.875 C 13.613281 -111.53125 10.757812 -111.96875 6.84375 -112.1875 L 6.84375 -115.453125 C 17.5 -115.117188 33.265625 -114.953125 54.140625 -114.953125 C 70.117188 -114.953125 81.476562 -115.117188 88.21875 -115.453125 Z M 88.21875 -115.453125 "/></g></g></g><g fill="#0b0b0b" fill-opacity="0.4"><g transform="translate(762.089849, 177.834719)"><g><path d="M 60.5 -117.734375 C 70.820312 -117.734375 79.867188 -115.394531 87.640625 -110.71875 C 95.421875 -106.039062 101.457031 -99.269531 105.75 -90.40625 C 110.039062 -81.550781 112.1875 -70.984375 112.1875 -58.703125 C 112.1875 -46.742188 109.984375 -36.144531 105.578125 -26.90625 C 101.179688 -17.664062 95.039062 -10.488281 87.15625 -5.375 C 79.269531 -0.269531 70.328125 2.28125 60.328125 2.28125 C 50.003906 2.28125 40.957031 -0.0507812 33.1875 -4.71875 C 25.414062 -9.394531 19.378906 -16.160156 15.078125 -25.015625 C 10.785156 -33.878906 8.640625 -44.457031 8.640625 -56.75 C 8.640625 -68.707031 10.835938 -79.304688 15.234375 -88.546875 C 19.640625 -97.785156 25.785156 -104.957031 33.671875 -110.0625 C 41.554688 -115.175781 50.5 -117.734375 60.5 -117.734375 Z M 59.84375 -114.796875 C 52.882812 -114.796875 46.769531 -112.375 41.5 -107.53125 C 36.226562 -102.695312 32.148438 -95.929688 29.265625 -87.234375 C 26.390625 -78.535156 24.953125 -68.585938 24.953125 -57.390625 C 24.953125 -46.085938 26.550781 -36.140625 29.75 -27.546875 C 32.957031 -18.960938 37.28125 -12.332031 42.71875 -7.65625 C 48.15625 -2.988281 54.242188 -0.65625 60.984375 -0.65625 C 67.941406 -0.65625 74.054688 -3.070312 79.328125 -7.90625 C 84.597656 -12.75 88.671875 -19.515625 91.546875 -28.203125 C 94.429688 -36.898438 95.875 -46.847656 95.875 -58.046875 C 95.875 -69.359375 94.269531 -79.304688 91.0625 -87.890625 C 87.863281 -96.472656 83.546875 -103.101562 78.109375 -107.78125 C 72.671875 -112.457031 66.582031 -114.796875 59.84375 -114.796875 Z M 59.84375 -114.796875 "/></g></g></g><g fill="#0b0b0b" fill-opacity="0.4"><g transform="translate(886.175797, 177.834719)"><g><path d="M 107.625 -8.15625 C 105.125 -4.457031 102.625 -1.789062 100.125 -0.15625 C 97.625 1.46875 94.304688 2.28125 90.171875 2.28125 C 85.710938 2.28125 82.039062 0.976562 79.15625 -1.625 C 76.28125 -4.238281 74.132812 -8.804688 72.71875 -15.328125 L 69.140625 -31.640625 C 67.835938 -37.285156 66.613281 -41.628906 65.46875 -44.671875 C 64.320312 -47.722656 62.609375 -50.171875 60.328125 -52.015625 C 58.046875 -53.859375 54.84375 -54.78125 50.71875 -54.78125 L 35.21875 -54.78125 L 35.21875 -17.28125 C 35.21875 -13.15625 35.539062 -10.164062 36.1875 -8.3125 C 36.84375 -6.46875 38.066406 -5.21875 39.859375 -4.5625 C 41.660156 -3.914062 44.515625 -3.484375 48.421875 -3.265625 L 48.421875 0 C 43.421875 -0.320312 36.519531 -0.484375 27.71875 -0.484375 C 18.375 -0.484375 11.414062 -0.320312 6.84375 0 L 6.84375 -3.265625 C 10.757812 -3.484375 13.613281 -3.914062 15.40625 -4.5625 C 17.195312 -5.21875 18.421875 -6.46875 19.078125 -8.3125 C 19.734375 -10.164062 20.0625 -13.15625 20.0625 -17.28125 L 20.0625 -98.15625 C 20.0625 -102.289062 19.734375 -105.28125 19.078125 -107.125 C 18.421875 -108.976562 17.195312 -110.226562 15.40625 -110.875 C 13.613281 -111.53125 10.757812 -111.96875 6.84375 -112.1875 L 6.84375 -115.453125 C 11.414062 -115.117188 18.050781 -114.953125 26.75 -114.953125 L 44.359375 -115.125 C 46.421875 -115.226562 48.753906 -115.28125 51.359375 -115.28125 C 63.972656 -115.28125 73.675781 -112.644531 80.46875 -107.375 C 87.257812 -102.101562 90.65625 -95.28125 90.65625 -86.90625 C 90.65625 -82.664062 89.648438 -78.398438 87.640625 -74.109375 C 85.628906 -69.816406 82.257812 -65.957031 77.53125 -62.53125 C 72.800781 -59.101562 66.632812 -56.796875 59.03125 -55.609375 L 60.984375 -55.28125 C 68.160156 -54.082031 73.378906 -51.90625 76.640625 -48.75 C 79.898438 -45.601562 82.289062 -40.601562 83.8125 -33.75 L 87.890625 -17.125 C 88.972656 -12.125 90.113281 -8.644531 91.3125 -6.6875 C 92.507812 -4.726562 94.140625 -3.75 96.203125 -3.75 C 98.054688 -3.75 99.609375 -4.238281 100.859375 -5.21875 C 102.109375 -6.195312 103.546875 -7.773438 105.171875 -9.953125 Z M 47.28125 -112.1875 C 43.914062 -112.1875 41.390625 -111.804688 39.703125 -111.046875 C 38.015625 -110.285156 36.84375 -108.925781 36.1875 -106.96875 C 35.539062 -105.007812 35.21875 -102.070312 35.21875 -98.15625 L 35.21875 -58.046875 L 46.140625 -58.046875 C 56.910156 -58.046875 64.304688 -60.4375 68.328125 -65.21875 C 72.347656 -70.007812 74.359375 -76.644531 74.359375 -85.125 C 74.359375 -94.03125 72.238281 -100.765625 68 -105.328125 C 63.757812 -109.898438 56.851562 -112.1875 47.28125 -112.1875 Z M 47.28125 -112.1875 "/></g></g></g><g fill="#0b0b0b" fill-opacity="0.4"><g transform="translate(995.097798, 177.834719)"><g/></g></g><g fill="#0b0b0b" fill-opacity="0.4"><g transform="translate(1038.962127, 177.834719)"><g><path d="M 83.65625 -114.953125 C 88.539062 -114.953125 92.613281 -115.117188 95.875 -115.453125 L 95.875 -112.1875 C 93.707031 -111.644531 91.585938 -110.257812 89.515625 -108.03125 C 87.453125 -105.800781 85.222656 -102.347656 82.828125 -97.671875 L 57.234375 -46.96875 L 57.234375 -17.28125 C 57.234375 -13.15625 57.554688 -10.164062 58.203125 -8.3125 C 58.859375 -6.46875 60.082031 -5.21875 61.875 -4.5625 C 63.675781 -3.914062 66.53125 -3.484375 70.4375 -3.265625 L 70.4375 0 C 65.4375 -0.320312 58.535156 -0.484375 49.734375 -0.484375 C 40.378906 -0.484375 33.421875 -0.320312 28.859375 0 L 28.859375 -3.265625 C 32.773438 -3.484375 35.628906 -3.914062 37.421875 -4.5625 C 39.210938 -5.21875 40.429688 -6.46875 41.078125 -8.3125 C 41.734375 -10.164062 42.0625 -13.15625 42.0625 -17.28125 L 42.0625 -41.75 L 8.96875 -102.890625 C 7.007812 -106.484375 5.296875 -108.90625 3.828125 -110.15625 C 2.359375 -111.40625 0.921875 -112.03125 -0.484375 -112.03125 L -0.484375 -115.453125 C 3.753906 -115.117188 8.535156 -114.953125 13.859375 -114.953125 C 24.398438 -114.953125 32.007812 -115.117188 36.6875 -115.453125 L 36.6875 -112.03125 C 29.082031 -112.03125 25.28125 -109.960938 25.28125 -105.828125 C 25.28125 -104.191406 25.820312 -102.289062 26.90625 -100.125 L 53.96875 -48.109375 L 74.84375 -89.515625 C 77.78125 -95.273438 79.25 -99.953125 79.25 -103.546875 C 79.25 -106.585938 78.050781 -108.757812 75.65625 -110.0625 C 73.269531 -111.375 69.6875 -112.082031 64.90625 -112.1875 L 64.90625 -115.453125 C 71.09375 -115.117188 77.34375 -114.953125 83.65625 -114.953125 Z M 83.65625 -114.953125 "/></g></g></g><g fill="#0b0b0b" fill-opacity="0.4"><g transform="translate(1138.590219, 177.834719)"><g><path d="M 60.5 -117.734375 C 70.820312 -117.734375 79.867188 -115.394531 87.640625 -110.71875 C 95.421875 -106.039062 101.457031 -99.269531 105.75 -90.40625 C 110.039062 -81.550781 112.1875 -70.984375 112.1875 -58.703125 C 112.1875 -46.742188 109.984375 -36.144531 105.578125 -26.90625 C 101.179688 -17.664062 95.039062 -10.488281 87.15625 -5.375 C 79.269531 -0.269531 70.328125 2.28125 60.328125 2.28125 C 50.003906 2.28125 40.957031 -0.0507812 33.1875 -4.71875 C 25.414062 -9.394531 19.378906 -16.160156 15.078125 -25.015625 C 10.785156 -33.878906 8.640625 -44.457031 8.640625 -56.75 C 8.640625 -68.707031 10.835938 -79.304688 15.234375 -88.546875 C 19.640625 -97.785156 25.785156 -104.957031 33.671875 -110.0625 C 41.554688 -115.175781 50.5 -117.734375 60.5 -117.734375 Z M 59.84375 -114.796875 C 52.882812 -114.796875 46.769531 -112.375 41.5 -107.53125 C 36.226562 -102.695312 32.148438 -95.929688 29.265625 -87.234375 C 26.390625 -78.535156 24.953125 -68.585938 24.953125 -57.390625 C 24.953125 -46.085938 26.550781 -36.140625 29.75 -27.546875 C 32.957031 -18.960938 37.28125 -12.332031 42.71875 -7.65625 C 48.15625 -2.988281 54.242188 -0.65625 60.984375 -0.65625 C 67.941406 -0.65625 74.054688 -3.070312 79.328125 -7.90625 C 84.597656 -12.75 88.671875 -19.515625 91.546875 -28.203125 C 94.429688 -36.898438 95.875 -46.847656 95.875 -58.046875 C 95.875 -69.359375 94.269531 -79.304688 91.0625 -87.890625 C 87.863281 -96.472656 83.546875 -103.101562 78.109375 -107.78125 C 72.671875 -112.457031 66.582031 -114.796875 59.84375 -114.796875 Z M 59.84375 -114.796875 "/></g></g></g><g fill="#0b0b0b" fill-opacity="0.4"><g transform="translate(1262.676041, 177.834719)"><g><path d="M 106.8125 -112.1875 C 103 -111.96875 100.164062 -111.394531 98.3125 -110.46875 C 96.46875 -109.550781 95.21875 -108.03125 94.5625 -105.90625 C 93.914062 -103.789062 93.59375 -100.664062 93.59375 -96.53125 L 93.59375 -47.453125 C 93.59375 -39.617188 93.078125 -32.90625 92.046875 -27.3125 C 91.015625 -21.71875 89.300781 -16.90625 86.90625 -12.875 C 84.1875 -8.207031 80.191406 -4.515625 74.921875 -1.796875 C 69.648438 0.921875 63.703125 2.28125 57.078125 2.28125 C 45.117188 2.28125 35.984375 -0.648438 29.671875 -6.515625 C 24.890625 -10.972656 21.679688 -16.03125 20.046875 -21.6875 C 18.421875 -27.34375 17.609375 -35.769531 17.609375 -46.96875 L 17.609375 -98.15625 C 17.609375 -102.289062 17.28125 -105.28125 16.625 -107.125 C 15.976562 -108.976562 14.753906 -110.226562 12.953125 -110.875 C 11.160156 -111.53125 8.3125 -111.96875 4.40625 -112.1875 L 4.40625 -115.453125 C 8.96875 -115.117188 15.925781 -114.953125 25.28125 -114.953125 C 34.082031 -114.953125 40.984375 -115.117188 45.984375 -115.453125 L 45.984375 -112.1875 C 42.066406 -111.96875 39.210938 -111.53125 37.421875 -110.875 C 35.628906 -110.226562 34.40625 -108.976562 33.75 -107.125 C 33.101562 -105.28125 32.78125 -102.289062 32.78125 -98.15625 L 32.78125 -44.1875 C 32.78125 -35.488281 33.375 -28.257812 34.5625 -22.5 C 35.757812 -16.738281 38.234375 -12.117188 41.984375 -8.640625 C 45.734375 -5.160156 51.253906 -3.421875 58.546875 -3.421875 C 70.066406 -3.421875 78.160156 -7.113281 82.828125 -14.5 C 87.503906 -21.894531 89.84375 -32.28125 89.84375 -45.65625 L 89.84375 -96.53125 C 89.84375 -102.40625 88.78125 -106.425781 86.65625 -108.59375 C 84.539062 -110.769531 80.660156 -111.96875 75.015625 -112.1875 L 75.015625 -115.453125 C 78.921875 -115.117188 84.460938 -114.953125 91.640625 -114.953125 C 98.160156 -114.953125 103.21875 -115.117188 106.8125 -115.453125 Z M 106.8125 -112.1875 "/></g></g></g><g fill="#e7dbca" fill-opacity="1"><g transform="translate(0.142812, 176.392024)"><g><path d="M 48.421875 -112.1875 C 44.515625 -111.96875 41.660156 -111.53125 39.859375 -110.875 C 38.066406 -110.226562 36.84375 -108.976562 36.1875 -107.125 C 35.539062 -105.28125 35.21875 -102.289062 35.21875 -98.15625 L 35.21875 -17.28125 C 35.21875 -13.15625 35.539062 -10.164062 36.1875 -8.3125 C 36.84375 -6.46875 38.066406 -5.21875 39.859375 -4.5625 C 41.660156 -3.914062 44.515625 -3.484375 48.421875 -3.265625 L 48.421875 0 C 43.421875 -0.320312 36.519531 -0.484375 27.71875 -0.484375 C 18.375 -0.484375 11.414062 -0.320312 6.84375 0 L 6.84375 -3.265625 C 10.757812 -3.484375 13.613281 -3.914062 15.40625 -4.5625 C 17.195312 -5.21875 18.421875 -6.46875 19.078125 -8.3125 C 19.734375 -10.164062 20.0625 -13.15625 20.0625 -17.28125 L 20.0625 -98.15625 C 20.0625 -102.289062 19.734375 -105.28125 19.078125 -107.125 C 18.421875 -108.976562 17.195312 -110.226562 15.40625 -110.875 C 13.613281 -111.53125 10.757812 -111.96875 6.84375 -112.1875 L 6.84375 -115.453125 C 11.414062 -115.117188 18.375 -114.953125 27.71875 -114.953125 C 36.414062 -114.953125 43.316406 -115.117188 48.421875 -115.453125 Z M 48.421875 -112.1875 "/></g></g></g><g fill="#e7dbca" fill-opacity="1"><g transform="translate(58.681797, 176.392024)"><g/></g></g><g fill="#e7dbca" fill-opacity="1"><g transform="translate(102.546125, 176.392024)"><g><path d="M 96.53125 -115.453125 C 95.769531 -107.734375 95.390625 -100.773438 95.390625 -94.578125 C 95.390625 -89.140625 95.550781 -84.679688 95.875 -81.203125 L 92.125 -81.203125 C 91.257812 -89.578125 90.171875 -95.800781 88.859375 -99.875 C 87.554688 -103.945312 85.273438 -106.9375 82.015625 -108.84375 C 78.753906 -110.75 73.753906 -111.703125 67.015625 -111.703125 L 58.21875 -111.703125 L 58.21875 -18.921875 C 58.21875 -14.347656 58.648438 -11.03125 59.515625 -8.96875 C 60.390625 -6.90625 61.910156 -5.492188 64.078125 -4.734375 C 66.253906 -3.972656 69.789062 -3.484375 74.6875 -3.265625 L 74.6875 0 C 69.03125 -0.320312 61.039062 -0.484375 50.71875 -0.484375 C 39.84375 -0.484375 31.796875 -0.320312 26.578125 0 L 26.578125 -3.265625 C 31.472656 -3.484375 35.003906 -3.972656 37.171875 -4.734375 C 39.347656 -5.492188 40.867188 -6.90625 41.734375 -8.96875 C 42.609375 -11.03125 43.046875 -14.347656 43.046875 -18.921875 L 43.046875 -111.703125 L 34.25 -111.703125 C 27.507812 -111.703125 22.503906 -110.75 19.234375 -108.84375 C 15.972656 -106.9375 13.691406 -103.945312 12.390625 -99.875 C 11.085938 -95.800781 10 -89.578125 9.125 -81.203125 L 5.375 -81.203125 C 5.707031 -84.679688 5.875 -89.140625 5.875 -94.578125 C 5.875 -100.773438 5.492188 -107.734375 4.734375 -115.453125 C 13.753906 -115.117188 29.082031 -114.953125 50.71875 -114.953125 C 72.238281 -114.953125 87.507812 -115.117188 96.53125 -115.453125 Z M 96.53125 -115.453125 "/></g></g></g><g fill="#e7dbca" fill-opacity="1"><g transform="translate(207.06577, 176.392024)"><g><path d="M 116.59375 -112.1875 C 112.675781 -111.96875 109.820312 -111.53125 108.03125 -110.875 C 106.238281 -110.226562 105.015625 -108.976562 104.359375 -107.125 C 103.703125 -105.28125 103.375 -102.289062 103.375 -98.15625 L 103.375 -17.28125 C 103.375 -13.15625 103.703125 -10.164062 104.359375 -8.3125 C 105.015625 -6.46875 106.238281 -5.21875 108.03125 -4.5625 C 109.820312 -3.914062 112.675781 -3.484375 116.59375 -3.265625 L 116.59375 0 C 112.019531 -0.320312 105.0625 -0.484375 95.71875 -0.484375 C 86.914062 -0.484375 80.015625 -0.320312 75.015625 0 L 75.015625 -3.265625 C 78.921875 -3.484375 81.769531 -3.914062 83.5625 -4.5625 C 85.363281 -5.21875 86.585938 -6.46875 87.234375 -8.3125 C 87.890625 -10.164062 88.21875 -13.15625 88.21875 -17.28125 L 88.21875 -56.421875 L 35.21875 -56.421875 L 35.21875 -17.28125 C 35.21875 -13.15625 35.539062 -10.164062 36.1875 -8.3125 C 36.84375 -6.46875 38.066406 -5.21875 39.859375 -4.5625 C 41.660156 -3.914062 44.515625 -3.484375 48.421875 -3.265625 L 48.421875 0 C 43.421875 -0.320312 36.519531 -0.484375 27.71875 -0.484375 C 18.375 -0.484375 11.414062 -0.320312 6.84375 0 L 6.84375 -3.265625 C 10.757812 -3.484375 13.613281 -3.914062 15.40625 -4.5625 C 17.195312 -5.21875 18.421875 -6.46875 19.078125 -8.3125 C 19.734375 -10.164062 20.0625 -13.15625 20.0625 -17.28125 L 20.0625 -98.15625 C 20.0625 -102.289062 19.734375 -105.28125 19.078125 -107.125 C 18.421875 -108.976562 17.195312 -110.226562 15.40625 -110.875 C 13.613281 -111.53125 10.757812 -111.96875 6.84375 -112.1875 L 6.84375 -115.453125 C 11.414062 -115.117188 18.375 -114.953125 27.71875 -114.953125 C 36.414062 -114.953125 43.316406 -115.117188 48.421875 -115.453125 L 48.421875 -112.1875 C 44.515625 -111.96875 41.660156 -111.53125 39.859375 -110.875 C 38.066406 -110.226562 36.84375 -108.976562 36.1875 -107.125 C 35.539062 -105.28125 35.21875 -102.289062 35.21875 -98.15625 L 35.21875 -59.6875 L 88.21875 -59.6875 L 88.21875 -98.15625 C 88.21875 -102.289062 87.890625 -105.28125 87.234375 -107.125 C 86.585938 -108.976562 85.363281 -110.226562 83.5625 -110.875 C 81.769531 -111.53125 78.921875 -111.96875 75.015625 -112.1875 L 75.015625 -115.453125 C 80.015625 -115.117188 86.914062 -114.953125 95.71875 -114.953125 C 105.0625 -114.953125 112.019531 -115.117188 116.59375 -115.453125 Z M 116.59375 -112.1875 "/></g></g></g><g fill="#e7dbca" fill-opacity="1"><g transform="translate(333.760471, 176.392024)"><g><path d="M 48.421875 -112.1875 C 44.515625 -111.96875 41.660156 -111.53125 39.859375 -110.875 C 38.066406 -110.226562 36.84375 -108.976562 36.1875 -107.125 C 35.539062 -105.28125 35.21875 -102.289062 35.21875 -98.15625 L 35.21875 -17.28125 C 35.21875 -13.15625 35.539062 -10.164062 36.1875 -8.3125 C 36.84375 -6.46875 38.066406 -5.21875 39.859375 -4.5625 C 41.660156 -3.914062 44.515625 -3.484375 48.421875 -3.265625 L 48.421875 0 C 43.421875 -0.320312 36.519531 -0.484375 27.71875 -0.484375 C 18.375 -0.484375 11.414062 -0.320312 6.84375 0 L 6.84375 -3.265625 C 10.757812 -3.484375 13.613281 -3.914062 15.40625 -4.5625 C 17.195312 -5.21875 18.421875 -6.46875 19.078125 -8.3125 C 19.734375 -10.164062 20.0625 -13.15625 20.0625 -17.28125 L 20.0625 -98.15625 C 20.0625 -102.289062 19.734375 -105.28125 19.078125 -107.125 C 18.421875 -108.976562 17.195312 -110.226562 15.40625 -110.875 C 13.613281 -111.53125 10.757812 -111.96875 6.84375 -112.1875 L 6.84375 -115.453125 C 11.414062 -115.117188 18.375 -114.953125 27.71875 -114.953125 C 36.414062 -114.953125 43.316406 -115.117188 48.421875 -115.453125 Z M 48.421875 -112.1875 "/></g></g></g><g fill="#e7dbca" fill-opacity="1"><g transform="translate(392.299456, 176.392024)"><g><path d="M 109.25 -112.1875 C 105.445312 -111.96875 102.617188 -111.394531 100.765625 -110.46875 C 98.921875 -109.550781 97.671875 -108.03125 97.015625 -105.90625 C 96.367188 -103.789062 96.046875 -100.664062 96.046875 -96.53125 L 96.046875 0.8125 L 92.296875 0.8125 L 23.8125 -105.015625 L 23.8125 -18.921875 C 23.8125 -14.679688 24.160156 -11.523438 24.859375 -9.453125 C 25.566406 -7.390625 26.953125 -5.894531 29.015625 -4.96875 C 31.085938 -4.050781 34.296875 -3.484375 38.640625 -3.265625 L 38.640625 0 C 34.734375 -0.320312 29.191406 -0.484375 22.015625 -0.484375 C 15.492188 -0.484375 10.4375 -0.320312 6.84375 0 L 6.84375 -3.265625 C 10.65625 -3.484375 13.484375 -4.050781 15.328125 -4.96875 C 17.171875 -5.894531 18.421875 -7.414062 19.078125 -9.53125 C 19.734375 -11.65625 20.0625 -14.785156 20.0625 -18.921875 L 20.0625 -98.15625 C 20.0625 -102.289062 19.734375 -105.28125 19.078125 -107.125 C 18.421875 -108.976562 17.195312 -110.226562 15.40625 -110.875 C 13.613281 -111.53125 10.757812 -111.96875 6.84375 -112.1875 L 6.84375 -115.453125 C 10.4375 -115.117188 15.492188 -114.953125 22.015625 -114.953125 C 26.898438 -114.953125 31.140625 -115.117188 34.734375 -115.453125 L 92.296875 -26.75 L 92.296875 -96.53125 C 92.296875 -100.769531 91.941406 -103.921875 91.234375 -105.984375 C 90.523438 -108.054688 89.140625 -109.550781 87.078125 -110.46875 C 85.015625 -111.394531 81.804688 -111.96875 77.453125 -112.1875 L 77.453125 -115.453125 C 81.367188 -115.117188 86.914062 -114.953125 94.09375 -114.953125 C 100.613281 -114.953125 105.664062 -115.117188 109.25 -115.453125 Z M 109.25 -112.1875 "/></g></g></g><g fill="#e7dbca" fill-opacity="1"><g transform="translate(510.678514, 176.392024)"><g><path d="M 92.296875 -13.203125 C 94.140625 -10.484375 96.175781 -8.335938 98.40625 -6.765625 C 100.632812 -5.191406 103.378906 -4.023438 106.640625 -3.265625 L 106.640625 0 C 101.421875 -0.320312 94.898438 -0.484375 87.078125 -0.484375 C 81.203125 -0.484375 75.601562 -0.320312 70.28125 0 L 70.28125 -3.265625 C 72.882812 -3.367188 74.785156 -3.691406 75.984375 -4.234375 C 77.179688 -4.785156 77.78125 -5.601562 77.78125 -6.6875 C 77.78125 -7.769531 77.238281 -9.070312 76.15625 -10.59375 L 52.34375 -46.46875 C 49.1875 -51.25 46.519531 -54.375 44.34375 -55.84375 C 42.175781 -57.3125 39.132812 -58.15625 35.21875 -58.375 L 35.21875 -17.28125 C 35.21875 -13.15625 35.539062 -10.164062 36.1875 -8.3125 C 36.84375 -6.46875 38.066406 -5.21875 39.859375 -4.5625 C 41.660156 -3.914062 44.515625 -3.484375 48.421875 -3.265625 L 48.421875 0 C 43.421875 -0.320312 36.519531 -0.484375 27.71875 -0.484375 C 18.375 -0.484375 11.414062 -0.320312 6.84375 0 L 6.84375 -3.265625 C 10.757812 -3.484375 13.613281 -3.914062 15.40625 -4.5625 C 17.195312 -5.21875 18.421875 -6.46875 19.078125 -8.3125 C 19.734375 -10.164062 20.0625 -13.15625 20.0625 -17.28125 L 20.0625 -98.15625 C 20.0625 -102.289062 19.734375 -105.28125 19.078125 -107.125 C 18.421875 -108.976562 17.195312 -110.226562 15.40625 -110.875 C 13.613281 -111.53125 10.757812 -111.96875 6.84375 -112.1875 L 6.84375 -115.453125 C 11.414062 -115.117188 18.375 -114.953125 27.71875 -114.953125 C 36.414062 -114.953125 43.316406 -115.117188 48.421875 -115.453125 L 48.421875 -112.1875 C 44.515625 -111.96875 41.660156 -111.53125 39.859375 -110.875 C 38.066406 -110.226562 36.84375 -108.976562 36.1875 -107.125 C 35.539062 -105.28125 35.21875 -102.289062 35.21875 -98.15625 L 35.21875 -61.640625 C 43.15625 -61.960938 49.351562 -65.003906 53.8125 -70.765625 L 69.46875 -90.65625 C 75.007812 -97.507812 77.78125 -102.726562 77.78125 -106.3125 C 77.78125 -110.125 74.410156 -112.082031 67.671875 -112.1875 L 67.671875 -115.453125 C 73.867188 -115.117188 80.117188 -114.953125 86.421875 -114.953125 C 92.398438 -114.953125 97.019531 -115.117188 100.28125 -115.453125 L 100.28125 -112.1875 C 96.695312 -111.644531 93.328125 -110.472656 90.171875 -108.671875 C 87.015625 -106.878906 83.972656 -104.082031 81.046875 -100.28125 L 54.46875 -66.203125 Z M 92.296875 -13.203125 "/></g></g></g><g fill="#e7dbca" fill-opacity="1"><g transform="translate(620.741963, 176.392024)"><g/></g></g><g fill="#e7dbca" fill-opacity="1"><g transform="translate(664.606291, 176.392024)"><g><path d="M 88.21875 -115.453125 C 87.457031 -107.734375 87.078125 -100.773438 87.078125 -94.578125 C 87.078125 -89.140625 87.238281 -84.679688 87.5625 -81.203125 L 83.8125 -81.203125 C 82.945312 -89.578125 81.859375 -95.800781 80.546875 -99.875 C 79.242188 -103.945312 76.960938 -106.9375 73.703125 -108.84375 C 70.441406 -110.75 65.441406 -111.703125 58.703125 -111.703125 L 48.421875 -111.703125 C 44.515625 -111.703125 41.660156 -111.398438 39.859375 -110.796875 C 38.066406 -110.203125 36.84375 -108.976562 36.1875 -107.125 C 35.539062 -105.28125 35.21875 -102.289062 35.21875 -98.15625 L 35.21875 -58.046875 L 47.125 -58.046875 C 50.925781 -58.046875 53.859375 -58.941406 55.921875 -60.734375 C 57.992188 -62.535156 59.382812 -64.65625 60.09375 -67.09375 C 60.800781 -69.539062 61.367188 -72.613281 61.796875 -76.3125 L 62.296875 -79.578125 L 66.046875 -79.578125 C 65.710938 -75.003906 65.546875 -69.894531 65.546875 -64.25 L 65.546875 -56.421875 C 65.546875 -50.878906 65.875 -43.160156 66.53125 -33.265625 L 62.78125 -33.265625 C 62.664062 -34.023438 62.335938 -36.660156 61.796875 -41.171875 C 61.253906 -45.679688 59.757812 -49.078125 57.3125 -51.359375 C 54.863281 -53.640625 51.46875 -54.78125 47.125 -54.78125 L 35.21875 -54.78125 L 35.21875 -17.28125 C 35.21875 -13.15625 35.648438 -10.164062 36.515625 -8.3125 C 37.390625 -6.46875 38.914062 -5.21875 41.09375 -4.5625 C 43.269531 -3.914062 46.800781 -3.484375 51.6875 -3.265625 L 51.6875 0 C 46.039062 -0.320312 38.050781 -0.484375 27.71875 -0.484375 C 18.375 -0.484375 11.414062 -0.320312 6.84375 0 L 6.84375 -3.265625 C 10.757812 -3.484375 13.613281 -3.914062 15.40625 -4.5625 C 17.195312 -5.21875 18.421875 -6.46875 19.078125 -8.3125 C 19.734375 -10.164062 20.0625 -13.15625 20.0625 -17.28125 L 20.0625 -98.15625 C 20.0625 -102.289062 19.734375 -105.28125 19.078125 -107.125 C 18.421875 -108.976562 17.195312 -110.226562 15.40625 -110.875 C 13.613281 -111.53125 10.757812 -111.96875 6.84375 -112.1875 L 6.84375 -115.453125 C 17.5 -115.117188 33.265625 -114.953125 54.140625 -114.953125 C 70.117188 -114.953125 81.476562 -115.117188 88.21875 -115.453125 Z M 88.21875 -115.453125 "/></g></g></g><g fill="#e7dbca" fill-opacity="1"><g transform="translate(760.647176, 176.392024)"><g><path d="M 60.5 -117.734375 C 70.820312 -117.734375 79.867188 -115.394531 87.640625 -110.71875 C 95.421875 -106.039062 101.457031 -99.269531 105.75 -90.40625 C 110.039062 -81.550781 112.1875 -70.984375 112.1875 -58.703125 C 112.1875 -46.742188 109.984375 -36.144531 105.578125 -26.90625 C 101.179688 -17.664062 95.039062 -10.488281 87.15625 -5.375 C 79.269531 -0.269531 70.328125 2.28125 60.328125 2.28125 C 50.003906 2.28125 40.957031 -0.0507812 33.1875 -4.71875 C 25.414062 -9.394531 19.378906 -16.160156 15.078125 -25.015625 C 10.785156 -33.878906 8.640625 -44.457031 8.640625 -56.75 C 8.640625 -68.707031 10.835938 -79.304688 15.234375 -88.546875 C 19.640625 -97.785156 25.785156 -104.957031 33.671875 -110.0625 C 41.554688 -115.175781 50.5 -117.734375 60.5 -117.734375 Z M 59.84375 -114.796875 C 52.882812 -114.796875 46.769531 -112.375 41.5 -107.53125 C 36.226562 -102.695312 32.148438 -95.929688 29.265625 -87.234375 C 26.390625 -78.535156 24.953125 -68.585938 24.953125 -57.390625 C 24.953125 -46.085938 26.550781 -36.140625 29.75 -27.546875 C 32.957031 -18.960938 37.28125 -12.332031 42.71875 -7.65625 C 48.15625 -2.988281 54.242188 -0.65625 60.984375 -0.65625 C 67.941406 -0.65625 74.054688 -3.070312 79.328125 -7.90625 C 84.597656 -12.75 88.671875 -19.515625 91.546875 -28.203125 C 94.429688 -36.898438 95.875 -46.847656 95.875 -58.046875 C 95.875 -69.359375 94.269531 -79.304688 91.0625 -87.890625 C 87.863281 -96.472656 83.546875 -103.101562 78.109375 -107.78125 C 72.671875 -112.457031 66.582031 -114.796875 59.84375 -114.796875 Z M 59.84375 -114.796875 "/></g></g></g><g fill="#e7dbca" fill-opacity="1"><g transform="translate(884.733124, 176.392024)"><g><path d="M 107.625 -8.15625 C 105.125 -4.457031 102.625 -1.789062 100.125 -0.15625 C 97.625 1.46875 94.304688 2.28125 90.171875 2.28125 C 85.710938 2.28125 82.039062 0.976562 79.15625 -1.625 C 76.28125 -4.238281 74.132812 -8.804688 72.71875 -15.328125 L 69.140625 -31.640625 C 67.835938 -37.285156 66.613281 -41.628906 65.46875 -44.671875 C 64.320312 -47.722656 62.609375 -50.171875 60.328125 -52.015625 C 58.046875 -53.859375 54.84375 -54.78125 50.71875 -54.78125 L 35.21875 -54.78125 L 35.21875 -17.28125 C 35.21875 -13.15625 35.539062 -10.164062 36.1875 -8.3125 C 36.84375 -6.46875 38.066406 -5.21875 39.859375 -4.5625 C 41.660156 -3.914062 44.515625 -3.484375 48.421875 -3.265625 L 48.421875 0 C 43.421875 -0.320312 36.519531 -0.484375 27.71875 -0.484375 C 18.375 -0.484375 11.414062 -0.320312 6.84375 0 L 6.84375 -3.265625 C 10.757812 -3.484375 13.613281 -3.914062 15.40625 -4.5625 C 17.195312 -5.21875 18.421875 -6.46875 19.078125 -8.3125 C 19.734375 -10.164062 20.0625 -13.15625 20.0625 -17.28125 L 20.0625 -98.15625 C 20.0625 -102.289062 19.734375 -105.28125 19.078125 -107.125 C 18.421875 -108.976562 17.195312 -110.226562 15.40625 -110.875 C 13.613281 -111.53125 10.757812 -111.96875 6.84375 -112.1875 L 6.84375 -115.453125 C 11.414062 -115.117188 18.050781 -114.953125 26.75 -114.953125 L 44.359375 -115.125 C 46.421875 -115.226562 48.753906 -115.28125 51.359375 -115.28125 C 63.972656 -115.28125 73.675781 -112.644531 80.46875 -107.375 C 87.257812 -102.101562 90.65625 -95.28125 90.65625 -86.90625 C 90.65625 -82.664062 89.648438 -78.398438 87.640625 -74.109375 C 85.628906 -69.816406 82.257812 -65.957031 77.53125 -62.53125 C 72.800781 -59.101562 66.632812 -56.796875 59.03125 -55.609375 L 60.984375 -55.28125 C 68.160156 -54.082031 73.378906 -51.90625 76.640625 -48.75 C 79.898438 -45.601562 82.289062 -40.601562 83.8125 -33.75 L 87.890625 -17.125 C 88.972656 -12.125 90.113281 -8.644531 91.3125 -6.6875 C 92.507812 -4.726562 94.140625 -3.75 96.203125 -3.75 C 98.054688 -3.75 99.609375 -4.238281 100.859375 -5.21875 C 102.109375 -6.195312 103.546875 -7.773438 105.171875 -9.953125 Z M 47.28125 -112.1875 C 43.914062 -112.1875 41.390625 -111.804688 39.703125 -111.046875 C 38.015625 -110.285156 36.84375 -108.925781 36.1875 -106.96875 C 35.539062 -105.007812 35.21875 -102.070312 35.21875 -98.15625 L 35.21875 -58.046875 L 46.140625 -58.046875 C 56.910156 -58.046875 64.304688 -60.4375 68.328125 -65.21875 C 72.347656 -70.007812 74.359375 -76.644531 74.359375 -85.125 C 74.359375 -94.03125 72.238281 -100.765625 68 -105.328125 C 63.757812 -109.898438 56.851562 -112.1875 47.28125 -112.1875 Z M 47.28125 -112.1875 "/></g></g></g><g fill="#e7dbca" fill-opacity="1"><g transform="translate(993.655125, 176.392024)"><g/></g></g><g fill="#e7dbca" fill-opacity="1"><g transform="translate(1037.519453, 176.392024)"><g><path d="M 83.65625 -114.953125 C 88.539062 -114.953125 92.613281 -115.117188 95.875 -115.453125 L 95.875 -112.1875 C 93.707031 -111.644531 91.585938 -110.257812 89.515625 -108.03125 C 87.453125 -105.800781 85.222656 -102.347656 82.828125 -97.671875 L 57.234375 -46.96875 L 57.234375 -17.28125 C 57.234375 -13.15625 57.554688 -10.164062 58.203125 -8.3125 C 58.859375 -6.46875 60.082031 -5.21875 61.875 -4.5625 C 63.675781 -3.914062 66.53125 -3.484375 70.4375 -3.265625 L 70.4375 0 C 65.4375 -0.320312 58.535156 -0.484375 49.734375 -0.484375 C 40.378906 -0.484375 33.421875 -0.320312 28.859375 0 L 28.859375 -3.265625 C 32.773438 -3.484375 35.628906 -3.914062 37.421875 -4.5625 C 39.210938 -5.21875 40.429688 -6.46875 41.078125 -8.3125 C 41.734375 -10.164062 42.0625 -13.15625 42.0625 -17.28125 L 42.0625 -41.75 L 8.96875 -102.890625 C 7.007812 -106.484375 5.296875 -108.90625 3.828125 -110.15625 C 2.359375 -111.40625 0.921875 -112.03125 -0.484375 -112.03125 L -0.484375 -115.453125 C 3.753906 -115.117188 8.535156 -114.953125 13.859375 -114.953125 C 24.398438 -114.953125 32.007812 -115.117188 36.6875 -115.453125 L 36.6875 -112.03125 C 29.082031 -112.03125 25.28125 -109.960938 25.28125 -105.828125 C 25.28125 -104.191406 25.820312 -102.289062 26.90625 -100.125 L 53.96875 -48.109375 L 74.84375 -89.515625 C 77.78125 -95.273438 79.25 -99.953125 79.25 -103.546875 C 79.25 -106.585938 78.050781 -108.757812 75.65625 -110.0625 C 73.269531 -111.375 69.6875 -112.082031 64.90625 -112.1875 L 64.90625 -115.453125 C 71.09375 -115.117188 77.34375 -114.953125 83.65625 -114.953125 Z M 83.65625 -114.953125 "/></g></g></g><g fill="#e7dbca" fill-opacity="1"><g transform="translate(1137.147546, 176.392024)"><g><path d="M 60.5 -117.734375 C 70.820312 -117.734375 79.867188 -115.394531 87.640625 -110.71875 C 95.421875 -106.039062 101.457031 -99.269531 105.75 -90.40625 C 110.039062 -81.550781 112.1875 -70.984375 112.1875 -58.703125 C 112.1875 -46.742188 109.984375 -36.144531 105.578125 -26.90625 C 101.179688 -17.664062 95.039062 -10.488281 87.15625 -5.375 C 79.269531 -0.269531 70.328125 2.28125 60.328125 2.28125 C 50.003906 2.28125 40.957031 -0.0507812 33.1875 -4.71875 C 25.414062 -9.394531 19.378906 -16.160156 15.078125 -25.015625 C 10.785156 -33.878906 8.640625 -44.457031 8.640625 -56.75 C 8.640625 -68.707031 10.835938 -79.304688 15.234375 -88.546875 C 19.640625 -97.785156 25.785156 -104.957031 33.671875 -110.0625 C 41.554688 -115.175781 50.5 -117.734375 60.5 -117.734375 Z M 59.84375 -114.796875 C 52.882812 -114.796875 46.769531 -112.375 41.5 -107.53125 C 36.226562 -102.695312 32.148438 -95.929688 29.265625 -87.234375 C 26.390625 -78.535156 24.953125 -68.585938 24.953125 -57.390625 C 24.953125 -46.085938 26.550781 -36.140625 29.75 -27.546875 C 32.957031 -18.960938 37.28125 -12.332031 42.71875 -7.65625 C 48.15625 -2.988281 54.242188 -0.65625 60.984375 -0.65625 C 67.941406 -0.65625 74.054688 -3.070312 79.328125 -7.90625 C 84.597656 -12.75 88.671875 -19.515625 91.546875 -28.203125 C 94.429688 -36.898438 95.875 -46.847656 95.875 -58.046875 C 95.875 -69.359375 94.269531 -79.304688 91.0625 -87.890625 C 87.863281 -96.472656 83.546875 -103.101562 78.109375 -107.78125 C 72.671875 -112.457031 66.582031 -114.796875 59.84375 -114.796875 Z M 59.84375 -114.796875 "/></g></g></g><g fill="#e7dbca" fill-opacity="1"><g transform="translate(1261.233367, 176.392024)"><g><path d="M 106.8125 -112.1875 C 103 -111.96875 100.164062 -111.394531 98.3125 -110.46875 C 96.46875 -109.550781 95.21875 -108.03125 94.5625 -105.90625 C 93.914062 -103.789062 93.59375 -100.664062 93.59375 -96.53125 L 93.59375 -47.453125 C 93.59375 -39.617188 93.078125 -32.90625 92.046875 -27.3125 C 91.015625 -21.71875 89.300781 -16.90625 86.90625 -12.875 C 84.1875 -8.207031 80.191406 -4.515625 74.921875 -1.796875 C 69.648438 0.921875 63.703125 2.28125 57.078125 2.28125 C 45.117188 2.28125 35.984375 -0.648438 29.671875 -6.515625 C 24.890625 -10.972656 21.679688 -16.03125 20.046875 -21.6875 C 18.421875 -27.34375 17.609375 -35.769531 17.609375 -46.96875 L 17.609375 -98.15625 C 17.609375 -102.289062 17.28125 -105.28125 16.625 -107.125 C 15.976562 -108.976562 14.753906 -110.226562 12.953125 -110.875 C 11.160156 -111.53125 8.3125 -111.96875 4.40625 -112.1875 L 4.40625 -115.453125 C 8.96875 -115.117188 15.925781 -114.953125 25.28125 -114.953125 C 34.082031 -114.953125 40.984375 -115.117188 45.984375 -115.453125 L 45.984375 -112.1875 C 42.066406 -111.96875 39.210938 -111.53125 37.421875 -110.875 C 35.628906 -110.226562 34.40625 -108.976562 33.75 -107.125 C 33.101562 -105.28125 32.78125 -102.289062 32.78125 -98.15625 L 32.78125 -44.1875 C 32.78125 -35.488281 33.375 -28.257812 34.5625 -22.5 C 35.757812 -16.738281 38.234375 -12.117188 41.984375 -8.640625 C 45.734375 -5.160156 51.253906 -3.421875 58.546875 -3.421875 C 70.066406 -3.421875 78.160156 -7.113281 82.828125 -14.5 C 87.503906 -21.894531 89.84375 -32.28125 89.84375 -45.65625 L 89.84375 -96.53125 C 89.84375 -102.40625 88.78125 -106.425781 86.65625 -108.59375 C 84.539062 -110.769531 80.660156 -111.96875 75.015625 -112.1875 L 75.015625 -115.453125 C 78.921875 -115.117188 84.460938 -114.953125 91.640625 -114.953125 C 98.160156 -114.953125 103.21875 -115.117188 106.8125 -115.453125 Z M 106.8125 -112.1875 "/></g></g></g></g></g><g transform="matrix(1, 0, 0, 1, 54, 758)"><g clip-path="url(#8733c8c5d8)"><g fill="#9b794e" fill-opacity="0.4"><g transform="translate(2.768415, 52.381623)"><g><path d="M 17.40625 -40 L 20.734375 -40 L 37.359375 0 L 33.1875 0 L 28 -12.515625 L 10.03125 -12.515625 L 4.90625 0 L 0.671875 0 Z M 27.09375 -15.609375 L 19.046875 -35.390625 L 10.875 -15.609375 Z M 27.09375 -15.609375 "/></g></g></g><g fill="#9b794e" fill-opacity="0.4"><g transform="translate(63.365104, 52.381623)"><g/></g></g><g fill="#9b794e" fill-opacity="0.4"><g transform="translate(100.256472, 52.381623)"><g><path d="M 33.40625 -36.515625 L 19.15625 -36.515625 L 19.15625 0 L 15.21875 0 L 15.21875 -36.515625 L 0.953125 -36.515625 L 0.953125 -40 L 33.40625 -40 Z M 33.40625 -36.515625 "/></g></g></g><g fill="#9b794e" fill-opacity="0.4"><g transform="translate(157.136897, 52.381623)"><g><path d="M 36.5625 -40 L 36.5625 0 L 32.671875 0 L 32.671875 -18.703125 L 8.953125 -18.703125 L 8.953125 0 L 5.015625 0 L 5.015625 -40 L 8.953125 -40 L 8.953125 -22.203125 L 32.671875 -22.203125 L 32.671875 -40 Z M 36.5625 -40 "/></g></g></g><g fill="#9b794e" fill-opacity="0.4"><g transform="translate(221.224635, 52.381623)"><g><path d="M 5.015625 0 L 5.015625 -40 L 8.953125 -40 L 8.953125 0 Z M 5.015625 0 "/></g></g></g><g fill="#9b794e" fill-opacity="0.4"><g transform="translate(257.721855, 52.381623)"><g><path d="M 5.015625 0 L 5.015625 -40 L 21.921875 -40 C 23.648438 -40 25.234375 -39.632812 26.671875 -38.90625 C 28.117188 -38.175781 29.367188 -37.21875 30.421875 -36.03125 C 31.472656 -34.84375 32.289062 -33.5 32.875 -32 C 33.457031 -30.5 33.75 -28.976562 33.75 -27.4375 C 33.75 -25.96875 33.53125 -24.566406 33.09375 -23.234375 C 32.664062 -21.898438 32.066406 -20.695312 31.296875 -19.625 C 30.523438 -18.5625 29.59375 -17.660156 28.5 -16.921875 C 27.414062 -16.191406 26.195312 -15.695312 24.84375 -15.4375 L 34.65625 0 L 30.203125 0 L 20.796875 -14.765625 L 8.953125 -14.765625 L 8.953125 0 Z M 8.953125 -18.25 L 22.03125 -18.25 C 23.195312 -18.25 24.257812 -18.503906 25.21875 -19.015625 C 26.175781 -19.523438 26.988281 -20.210938 27.65625 -21.078125 C 28.332031 -21.941406 28.859375 -22.914062 29.234375 -24 C 29.617188 -25.09375 29.8125 -26.238281 29.8125 -27.4375 C 29.8125 -28.644531 29.59375 -29.800781 29.15625 -30.90625 C 28.726562 -32.007812 28.144531 -32.972656 27.40625 -33.796875 C 26.675781 -34.628906 25.8125 -35.289062 24.8125 -35.78125 C 23.820312 -36.269531 22.78125 -36.515625 21.6875 -36.515625 L 8.953125 -36.515625 Z M 8.953125 -18.25 "/></g></g></g><g fill="#9b794e" fill-opacity="0.4"><g transform="translate(317.023494, 52.381623)"><g><path d="M 5.015625 0 L 5.015625 -40 L 18.59375 -40 C 21.78125 -40 24.566406 -39.472656 26.953125 -38.421875 C 29.335938 -37.367188 31.328125 -35.941406 32.921875 -34.140625 C 34.523438 -32.335938 35.726562 -30.222656 36.53125 -27.796875 C 37.34375 -25.378906 37.75 -22.800781 37.75 -20.0625 C 37.75 -17.019531 37.296875 -14.265625 36.390625 -11.796875 C 35.492188 -9.335938 34.207031 -7.234375 32.53125 -5.484375 C 30.863281 -3.742188 28.851562 -2.394531 26.5 -1.4375 C 24.15625 -0.476562 21.519531 0 18.59375 0 Z M 33.8125 -20.0625 C 33.8125 -22.46875 33.472656 -24.671875 32.796875 -26.671875 C 32.117188 -28.679688 31.128906 -30.421875 29.828125 -31.890625 C 28.535156 -33.359375 26.945312 -34.492188 25.0625 -35.296875 C 23.1875 -36.109375 21.03125 -36.515625 18.59375 -36.515625 L 8.953125 -36.515625 L 8.953125 -3.5 L 18.59375 -3.5 C 21.070312 -3.5 23.257812 -3.921875 25.15625 -4.765625 C 27.050781 -5.609375 28.632812 -6.769531 29.90625 -8.25 C 31.1875 -9.738281 32.15625 -11.488281 32.8125 -13.5 C 33.476562 -15.507812 33.8125 -17.695312 33.8125 -20.0625 Z M 33.8125 -20.0625 "/></g></g></g><g fill="#9b794e" fill-opacity="0.4"><g transform="translate(379.816142, 52.381623)"><g/></g></g><g fill="#9b794e" fill-opacity="0.4"><g transform="translate(416.70751, 52.381623)"><g><path d="M 5.015625 0 L 5.015625 -40 L 21.578125 -40 C 23.304688 -40 24.894531 -39.632812 26.34375 -38.90625 C 27.789062 -38.175781 29.039062 -37.21875 30.09375 -36.03125 C 31.144531 -34.84375 31.96875 -33.5 32.5625 -32 C 33.164062 -30.5 33.46875 -28.976562 33.46875 -27.4375 C 33.46875 -25.78125 33.1875 -24.191406 32.625 -22.671875 C 32.0625 -21.148438 31.269531 -19.804688 30.25 -18.640625 C 29.238281 -17.484375 28.03125 -16.546875 26.625 -15.828125 C 25.21875 -15.117188 23.648438 -14.765625 21.921875 -14.765625 L 8.953125 -14.765625 L 8.953125 0 Z M 8.953125 -18.25 L 21.75 -18.25 C 22.914062 -18.25 23.976562 -18.503906 24.9375 -19.015625 C 25.894531 -19.523438 26.707031 -20.203125 27.375 -21.046875 C 28.050781 -21.890625 28.578125 -22.863281 28.953125 -23.96875 C 29.335938 -25.082031 29.53125 -26.238281 29.53125 -27.4375 C 29.53125 -28.675781 29.3125 -29.847656 28.875 -30.953125 C 28.445312 -32.066406 27.863281 -33.035156 27.125 -33.859375 C 26.394531 -34.691406 25.53125 -35.34375 24.53125 -35.8125 C 23.539062 -36.28125 22.5 -36.515625 21.40625 -36.515625 L 8.953125 -36.515625 Z M 8.953125 -18.25 "/></g></g></g><g fill="#9b794e" fill-opacity="0.4"><g transform="translate(474.263624, 52.381623)"><g><path d="M 31.890625 -3.5 L 31.890625 0 L 5.015625 0 L 5.015625 -40 L 31.390625 -40 L 31.390625 -36.515625 L 8.953125 -36.515625 L 8.953125 -22.09375 L 28.515625 -22.09375 L 28.515625 -18.765625 L 8.953125 -18.765625 L 8.953125 -3.5 Z M 31.890625 -3.5 "/></g></g></g><g fill="#9b794e" fill-opacity="0.4"><g transform="translate(531.087728, 52.381623)"><g><path d="M 5.015625 0 L 5.015625 -40 L 21.921875 -40 C 23.648438 -40 25.234375 -39.632812 26.671875 -38.90625 C 28.117188 -38.175781 29.367188 -37.21875 30.421875 -36.03125 C 31.472656 -34.84375 32.289062 -33.5 32.875 -32 C 33.457031 -30.5 33.75 -28.976562 33.75 -27.4375 C 33.75 -25.96875 33.53125 -24.566406 33.09375 -23.234375 C 32.664062 -21.898438 32.066406 -20.695312 31.296875 -19.625 C 30.523438 -18.5625 29.59375 -17.660156 28.5 -16.921875 C 27.414062 -16.191406 26.195312 -15.695312 24.84375 -15.4375 L 34.65625 0 L 30.203125 0 L 20.796875 -14.765625 L 8.953125 -14.765625 L 8.953125 0 Z M 8.953125 -18.25 L 22.03125 -18.25 C 23.195312 -18.25 24.257812 -18.503906 25.21875 -19.015625 C 26.175781 -19.523438 26.988281 -20.210938 27.65625 -21.078125 C 28.332031 -21.941406 28.859375 -22.914062 29.234375 -24 C 29.617188 -25.09375 29.8125 -26.238281 29.8125 -27.4375 C 29.8125 -28.644531 29.59375 -29.800781 29.15625 -30.90625 C 28.726562 -32.007812 28.144531 -32.972656 27.40625 -33.796875 C 26.675781 -34.628906 25.8125 -35.289062 24.8125 -35.78125 C 23.820312 -36.269531 22.78125 -36.515625 21.6875 -36.515625 L 8.953125 -36.515625 Z M 8.953125 -18.25 "/></g></g></g><g fill="#9b794e" fill-opacity="0.4"><g transform="translate(590.389367, 52.381623)"><g><path d="M 28.390625 -32.515625 C 27.265625 -33.785156 25.765625 -34.816406 23.890625 -35.609375 C 22.015625 -36.398438 19.875 -36.796875 17.46875 -36.796875 C 13.9375 -36.796875 11.363281 -36.128906 9.75 -34.796875 C 8.132812 -33.460938 7.328125 -31.648438 7.328125 -29.359375 C 7.328125 -28.148438 7.539062 -27.160156 7.96875 -26.390625 C 8.40625 -25.617188 9.070312 -24.953125 9.96875 -24.390625 C 10.875 -23.828125 12.03125 -23.335938 13.4375 -22.921875 C 14.84375 -22.515625 16.503906 -22.101562 18.421875 -21.6875 C 20.566406 -21.238281 22.492188 -20.734375 24.203125 -20.171875 C 25.910156 -19.609375 27.363281 -18.90625 28.5625 -18.0625 C 29.769531 -17.21875 30.691406 -16.191406 31.328125 -14.984375 C 31.960938 -13.785156 32.28125 -12.285156 32.28125 -10.484375 C 32.28125 -8.640625 31.921875 -7.039062 31.203125 -5.6875 C 30.492188 -4.332031 29.5 -3.203125 28.21875 -2.296875 C 26.945312 -1.398438 25.425781 -0.734375 23.65625 -0.296875 C 21.894531 0.128906 19.960938 0.34375 17.859375 0.34375 C 11.660156 0.34375 6.304688 -1.59375 1.796875 -5.46875 L 3.78125 -8.671875 C 4.488281 -7.921875 5.335938 -7.207031 6.328125 -6.53125 C 7.328125 -5.851562 8.4375 -5.257812 9.65625 -4.75 C 10.882812 -4.25 12.191406 -3.859375 13.578125 -3.578125 C 14.960938 -3.296875 16.425781 -3.15625 17.96875 -3.15625 C 21.164062 -3.15625 23.65625 -3.726562 25.4375 -4.875 C 27.21875 -6.019531 28.109375 -7.753906 28.109375 -10.078125 C 28.109375 -11.316406 27.851562 -12.359375 27.34375 -13.203125 C 26.84375 -14.054688 26.082031 -14.789062 25.0625 -15.40625 C 24.050781 -16.03125 22.796875 -16.566406 21.296875 -17.015625 C 19.796875 -17.460938 18.050781 -17.914062 16.0625 -18.375 C 13.957031 -18.851562 12.113281 -19.351562 10.53125 -19.875 C 8.957031 -20.40625 7.625 -21.066406 6.53125 -21.859375 C 5.445312 -22.648438 4.628906 -23.597656 4.078125 -24.703125 C 3.535156 -25.816406 3.265625 -27.179688 3.265625 -28.796875 C 3.265625 -30.628906 3.613281 -32.269531 4.3125 -33.71875 C 5.007812 -35.164062 5.992188 -36.367188 7.265625 -37.328125 C 8.546875 -38.285156 10.050781 -39.015625 11.78125 -39.515625 C 13.507812 -40.023438 15.421875 -40.28125 17.515625 -40.28125 C 20.179688 -40.28125 22.554688 -39.875 24.640625 -39.0625 C 26.734375 -38.257812 28.625 -37.128906 30.3125 -35.671875 Z M 28.390625 -32.515625 "/></g></g></g><g fill="#9b794e" fill-opacity="0.4"><g transform="translate(647.1009, 52.381623)"><g><path d="M 21.125 0.28125 C 18.34375 0.28125 15.796875 -0.289062 13.484375 -1.4375 C 11.179688 -2.582031 9.203125 -4.101562 7.546875 -6 C 5.898438 -7.894531 4.625 -10.0625 3.71875 -12.5 C 2.8125 -14.945312 2.359375 -17.445312 2.359375 -20 C 2.359375 -22.664062 2.835938 -25.21875 3.796875 -27.65625 C 4.753906 -30.101562 6.078125 -32.265625 7.765625 -34.140625 C 9.460938 -36.023438 11.457031 -37.519531 13.75 -38.625 C 16.039062 -39.726562 18.519531 -40.28125 21.1875 -40.28125 C 23.96875 -40.28125 26.507812 -39.6875 28.8125 -38.5 C 31.125 -37.320312 33.097656 -35.773438 34.734375 -33.859375 C 36.367188 -31.941406 37.632812 -29.769531 38.53125 -27.34375 C 39.4375 -24.925781 39.890625 -22.460938 39.890625 -19.953125 C 39.890625 -17.273438 39.410156 -14.71875 38.453125 -12.28125 C 37.492188 -9.84375 36.175781 -7.691406 34.5 -5.828125 C 32.832031 -3.972656 30.851562 -2.488281 28.5625 -1.375 C 26.269531 -0.269531 23.789062 0.28125 21.125 0.28125 Z M 6.3125 -20 C 6.3125 -17.820312 6.664062 -15.726562 7.375 -13.71875 C 8.09375 -11.707031 9.109375 -9.921875 10.421875 -8.359375 C 11.734375 -6.804688 13.289062 -5.566406 15.09375 -4.640625 C 16.894531 -3.722656 18.90625 -3.265625 21.125 -3.265625 C 23.382812 -3.265625 25.429688 -3.753906 27.265625 -4.734375 C 29.109375 -5.710938 30.664062 -6.988281 31.9375 -8.5625 C 33.21875 -10.144531 34.207031 -11.929688 34.90625 -13.921875 C 35.601562 -15.910156 35.953125 -17.9375 35.953125 -20 C 35.953125 -22.175781 35.582031 -24.269531 34.84375 -26.28125 C 34.113281 -28.289062 33.09375 -30.066406 31.78125 -31.609375 C 30.46875 -33.148438 28.90625 -34.378906 27.09375 -35.296875 C 25.289062 -36.222656 23.300781 -36.6875 21.125 -36.6875 C 18.875 -36.6875 16.828125 -36.207031 14.984375 -35.25 C 13.148438 -34.289062 11.59375 -33.019531 10.3125 -31.4375 C 9.03125 -29.863281 8.039062 -28.078125 7.34375 -26.078125 C 6.65625 -24.085938 6.3125 -22.0625 6.3125 -20 Z M 6.3125 -20 "/></g></g></g><g fill="#9b794e" fill-opacity="0.4"><g transform="translate(711.920536, 52.381623)"><g><path d="M 8.953125 -32.671875 L 8.953125 0 L 5.015625 0 L 5.015625 -40 L 8.0625 -40 L 34.53125 -6.703125 L 34.53125 -39.953125 L 38.484375 -39.953125 L 38.484375 0 L 35.046875 0 Z M 8.953125 -32.671875 "/></g></g></g><g fill="#9b794e" fill-opacity="0.4"><g transform="translate(777.922729, 52.381623)"><g/></g></g><g fill="#9b794e" fill-opacity="0.4"><g transform="translate(814.814058, 52.381623)"><g><path d="M 5.015625 0 L 5.015625 -40 L 21.578125 -40 C 23.304688 -40 24.894531 -39.632812 26.34375 -38.90625 C 27.789062 -38.175781 29.039062 -37.21875 30.09375 -36.03125 C 31.144531 -34.84375 31.96875 -33.5 32.5625 -32 C 33.164062 -30.5 33.46875 -28.976562 33.46875 -27.4375 C 33.46875 -25.78125 33.1875 -24.191406 32.625 -22.671875 C 32.0625 -21.148438 31.269531 -19.804688 30.25 -18.640625 C 29.238281 -17.484375 28.03125 -16.546875 26.625 -15.828125 C 25.21875 -15.117188 23.648438 -14.765625 21.921875 -14.765625 L 8.953125 -14.765625 L 8.953125 0 Z M 8.953125 -18.25 L 21.75 -18.25 C 22.914062 -18.25 23.976562 -18.503906 24.9375 -19.015625 C 25.894531 -19.523438 26.707031 -20.203125 27.375 -21.046875 C 28.050781 -21.890625 28.578125 -22.863281 28.953125 -23.96875 C 29.335938 -25.082031 29.53125 -26.238281 29.53125 -27.4375 C 29.53125 -28.675781 29.3125 -29.847656 28.875 -30.953125 C 28.445312 -32.066406 27.863281 -33.035156 27.125 -33.859375 C 26.394531 -34.691406 25.53125 -35.34375 24.53125 -35.8125 C 23.539062 -36.28125 22.5 -36.515625 21.40625 -36.515625 L 8.953125 -36.515625 Z M 8.953125 -18.25 "/></g></g></g><g fill="#9b794e" fill-opacity="0.4"><g transform="translate(872.37021, 52.381623)"><g><path d="M 31.890625 -3.5 L 31.890625 0 L 5.015625 0 L 5.015625 -40 L 31.390625 -40 L 31.390625 -36.515625 L 8.953125 -36.515625 L 8.953125 -22.09375 L 28.515625 -22.09375 L 28.515625 -18.765625 L 8.953125 -18.765625 L 8.953125 -3.5 Z M 31.890625 -3.5 "/></g></g></g><g fill="#9b794e" fill-opacity="0.4"><g transform="translate(929.194315, 52.381623)"><g><path d="M 5.015625 0 L 5.015625 -40 L 21.921875 -40 C 23.648438 -40 25.234375 -39.632812 26.671875 -38.90625 C 28.117188 -38.175781 29.367188 -37.21875 30.421875 -36.03125 C 31.472656 -34.84375 32.289062 -33.5 32.875 -32 C 33.457031 -30.5 33.75 -28.976562 33.75 -27.4375 C 33.75 -25.96875 33.53125 -24.566406 33.09375 -23.234375 C 32.664062 -21.898438 32.066406 -20.695312 31.296875 -19.625 C 30.523438 -18.5625 29.59375 -17.660156 28.5 -16.921875 C 27.414062 -16.191406 26.195312 -15.695312 24.84375 -15.4375 L 34.65625 0 L 30.203125 0 L 20.796875 -14.765625 L 8.953125 -14.765625 L 8.953125 0 Z M 8.953125 -18.25 L 22.03125 -18.25 C 23.195312 -18.25 24.257812 -18.503906 25.21875 -19.015625 C 26.175781 -19.523438 26.988281 -20.210938 27.65625 -21.078125 C 28.332031 -21.941406 28.859375 -22.914062 29.234375 -24 C 29.617188 -25.09375 29.8125 -26.238281 29.8125 -27.4375 C 29.8125 -28.644531 29.59375 -29.800781 29.15625 -30.90625 C 28.726562 -32.007812 28.144531 -32.972656 27.40625 -33.796875 C 26.675781 -34.628906 25.8125 -35.289062 24.8125 -35.78125 C 23.820312 -36.269531 22.78125 -36.515625 21.6875 -36.515625 L 8.953125 -36.515625 Z M 8.953125 -18.25 "/></g></g></g><g fill="#9b794e" fill-opacity="0.4"><g transform="translate(988.495953, 52.381623)"><g><path d="M 28.390625 -32.515625 C 27.265625 -33.785156 25.765625 -34.816406 23.890625 -35.609375 C 22.015625 -36.398438 19.875 -36.796875 17.46875 -36.796875 C 13.9375 -36.796875 11.363281 -36.128906 9.75 -34.796875 C 8.132812 -33.460938 7.328125 -31.648438 7.328125 -29.359375 C 7.328125 -28.148438 7.539062 -27.160156 7.96875 -26.390625 C 8.40625 -25.617188 9.070312 -24.953125 9.96875 -24.390625 C 10.875 -23.828125 12.03125 -23.335938 13.4375 -22.921875 C 14.84375 -22.515625 16.503906 -22.101562 18.421875 -21.6875 C 20.566406 -21.238281 22.492188 -20.734375 24.203125 -20.171875 C 25.910156 -19.609375 27.363281 -18.90625 28.5625 -18.0625 C 29.769531 -17.21875 30.691406 -16.191406 31.328125 -14.984375 C 31.960938 -13.785156 32.28125 -12.285156 32.28125 -10.484375 C 32.28125 -8.640625 31.921875 -7.039062 31.203125 -5.6875 C 30.492188 -4.332031 29.5 -3.203125 28.21875 -2.296875 C 26.945312 -1.398438 25.425781 -0.734375 23.65625 -0.296875 C 21.894531 0.128906 19.960938 0.34375 17.859375 0.34375 C 11.660156 0.34375 6.304688 -1.59375 1.796875 -5.46875 L 3.78125 -8.671875 C 4.488281 -7.921875 5.335938 -7.207031 6.328125 -6.53125 C 7.328125 -5.851562 8.4375 -5.257812 9.65625 -4.75 C 10.882812 -4.25 12.191406 -3.859375 13.578125 -3.578125 C 14.960938 -3.296875 16.425781 -3.15625 17.96875 -3.15625 C 21.164062 -3.15625 23.65625 -3.726562 25.4375 -4.875 C 27.21875 -6.019531 28.109375 -7.753906 28.109375 -10.078125 C 28.109375 -11.316406 27.851562 -12.359375 27.34375 -13.203125 C 26.84375 -14.054688 26.082031 -14.789062 25.0625 -15.40625 C 24.050781 -16.03125 22.796875 -16.566406 21.296875 -17.015625 C 19.796875 -17.460938 18.050781 -17.914062 16.0625 -18.375 C 13.957031 -18.851562 12.113281 -19.351562 10.53125 -19.875 C 8.957031 -20.40625 7.625 -21.066406 6.53125 -21.859375 C 5.445312 -22.648438 4.628906 -23.597656 4.078125 -24.703125 C 3.535156 -25.816406 3.265625 -27.179688 3.265625 -28.796875 C 3.265625 -30.628906 3.613281 -32.269531 4.3125 -33.71875 C 5.007812 -35.164062 5.992188 -36.367188 7.265625 -37.328125 C 8.546875 -38.285156 10.050781 -39.015625 11.78125 -39.515625 C 13.507812 -40.023438 15.421875 -40.28125 17.515625 -40.28125 C 20.179688 -40.28125 22.554688 -39.875 24.640625 -39.0625 C 26.734375 -38.257812 28.625 -37.128906 30.3125 -35.671875 Z M 28.390625 -32.515625 "/></g></g></g><g fill="#9b794e" fill-opacity="0.4"><g transform="translate(1045.207486, 52.381623)"><g><path d="M 5.015625 0 L 5.015625 -40 L 21.578125 -40 C 23.304688 -40 24.894531 -39.632812 26.34375 -38.90625 C 27.789062 -38.175781 29.039062 -37.21875 30.09375 -36.03125 C 31.144531 -34.84375 31.96875 -33.5 32.5625 -32 C 33.164062 -30.5 33.46875 -28.976562 33.46875 -27.4375 C 33.46875 -25.78125 33.1875 -24.191406 32.625 -22.671875 C 32.0625 -21.148438 31.269531 -19.804688 30.25 -18.640625 C 29.238281 -17.484375 28.03125 -16.546875 26.625 -15.828125 C 25.21875 -15.117188 23.648438 -14.765625 21.921875 -14.765625 L 8.953125 -14.765625 L 8.953125 0 Z M 8.953125 -18.25 L 21.75 -18.25 C 22.914062 -18.25 23.976562 -18.503906 24.9375 -19.015625 C 25.894531 -19.523438 26.707031 -20.203125 27.375 -21.046875 C 28.050781 -21.890625 28.578125 -22.863281 28.953125 -23.96875 C 29.335938 -25.082031 29.53125 -26.238281 29.53125 -27.4375 C 29.53125 -28.675781 29.3125 -29.847656 28.875 -30.953125 C 28.445312 -32.066406 27.863281 -33.035156 27.125 -33.859375 C 26.394531 -34.691406 25.53125 -35.34375 24.53125 -35.8125 C 23.539062 -36.28125 22.5 -36.515625 21.40625 -36.515625 L 8.953125 -36.515625 Z M 8.953125 -18.25 "/></g></g></g><g fill="#9b794e" fill-opacity="0.4"><g transform="translate(1102.763563, 52.381623)"><g><path d="M 31.890625 -3.5 L 31.890625 0 L 5.015625 0 L 5.015625 -40 L 31.390625 -40 L 31.390625 -36.515625 L 8.953125 -36.515625 L 8.953125 -22.09375 L 28.515625 -22.09375 L 28.515625 -18.765625 L 8.953125 -18.765625 L 8.953125 -3.5 Z M 31.890625 -3.5 "/></g></g></g><g fill="#9b794e" fill-opacity="0.4"><g transform="translate(1159.587668, 52.381623)"><g><path d="M 2.359375 -20.28125 C 2.359375 -22.6875 2.78125 -25.082031 3.625 -27.46875 C 4.476562 -29.851562 5.710938 -31.984375 7.328125 -33.859375 C 8.941406 -35.742188 10.929688 -37.273438 13.296875 -38.453125 C 15.660156 -39.640625 18.347656 -40.234375 21.359375 -40.234375 C 24.921875 -40.234375 27.96875 -39.425781 30.5 -37.8125 C 33.039062 -36.195312 34.910156 -34.09375 36.109375 -31.5 L 33.015625 -29.578125 C 32.378906 -30.890625 31.597656 -31.992188 30.671875 -32.890625 C 29.753906 -33.796875 28.769531 -34.53125 27.71875 -35.09375 C 26.664062 -35.664062 25.578125 -36.070312 24.453125 -36.3125 C 23.328125 -36.5625 22.21875 -36.6875 21.125 -36.6875 C 18.71875 -36.6875 16.59375 -36.195312 14.75 -35.21875 C 12.914062 -34.238281 11.367188 -32.957031 10.109375 -31.375 C 8.847656 -29.800781 7.898438 -28.023438 7.265625 -26.046875 C 6.628906 -24.078125 6.3125 -22.082031 6.3125 -20.0625 C 6.3125 -17.84375 6.695312 -15.71875 7.46875 -13.6875 C 8.238281 -11.664062 9.289062 -9.875 10.625 -8.3125 C 11.957031 -6.75 13.535156 -5.507812 15.359375 -4.59375 C 17.179688 -3.675781 19.160156 -3.21875 21.296875 -3.21875 C 22.421875 -3.21875 23.570312 -3.359375 24.75 -3.640625 C 25.9375 -3.921875 27.082031 -4.367188 28.1875 -4.984375 C 29.300781 -5.609375 30.328125 -6.378906 31.265625 -7.296875 C 32.203125 -8.210938 32.992188 -9.332031 33.640625 -10.65625 L 36.90625 -8.953125 C 36.269531 -7.453125 35.367188 -6.128906 34.203125 -4.984375 C 33.035156 -3.835938 31.738281 -2.867188 30.3125 -2.078125 C 28.882812 -1.296875 27.367188 -0.695312 25.765625 -0.28125 C 24.171875 0.132812 22.609375 0.34375 21.078125 0.34375 C 18.328125 0.34375 15.804688 -0.253906 13.515625 -1.453125 C 11.222656 -2.660156 9.25 -4.234375 7.59375 -6.171875 C 5.945312 -8.109375 4.660156 -10.304688 3.734375 -12.765625 C 2.816406 -15.222656 2.359375 -17.726562 2.359375 -20.28125 Z M 2.359375 -20.28125 "/></g></g></g><g fill="#9b794e" fill-opacity="0.4"><g transform="translate(1220.747437, 52.381623)"><g><path d="M 33.40625 -36.515625 L 19.15625 -36.515625 L 19.15625 0 L 15.21875 0 L 15.21875 -36.515625 L 0.953125 -36.515625 L 0.953125 -40 L 33.40625 -40 Z M 33.40625 -36.515625 "/></g></g></g><g fill="#9b794e" fill-opacity="0.4"><g transform="translate(1277.627863, 52.381623)"><g><path d="M 5.015625 0 L 5.015625 -40 L 8.953125 -40 L 8.953125 0 Z M 5.015625 0 "/></g></g></g><g fill="#9b794e" fill-opacity="0.4"><g transform="translate(1314.125082, 52.381623)"><g><path d="M 4.84375 -40 L 19.15625 -4.90625 L 33.40625 -40 L 37.53125 -40 L 20.84375 0 L 17.40625 0 L 0.734375 -40 Z M 4.84375 -40 "/></g></g></g><g fill="#9b794e" fill-opacity="0.4"><g transform="translate(1374.890667, 52.381623)"><g><path d="M 31.890625 -3.5 L 31.890625 0 L 5.015625 0 L 5.015625 -40 L 31.390625 -40 L 31.390625 -36.515625 L 8.953125 -36.515625 L 8.953125 -22.09375 L 28.515625 -22.09375 L 28.515625 -18.765625 L 8.953125 -18.765625 L 8.953125 -3.5 Z M 31.890625 -3.5 "/></g></g></g><g fill="#9b794e" fill-opacity="1"><g transform="translate(0.776751, 50.389963)"><g><path d="M 17.40625 -40 L 20.734375 -40 L 37.359375 0 L 33.1875 0 L 28 -12.515625 L 10.03125 -12.515625 L 4.90625 0 L 0.671875 0 Z M 27.09375 -15.609375 L 19.046875 -35.390625 L 10.875 -15.609375 Z M 27.09375 -15.609375 "/></g></g></g><g fill="#9b794e" fill-opacity="1"><g transform="translate(61.373441, 50.389963)"><g/></g></g><g fill="#9b794e" fill-opacity="1"><g transform="translate(98.264808, 50.389963)"><g><path d="M 33.40625 -36.515625 L 19.15625 -36.515625 L 19.15625 0 L 15.21875 0 L 15.21875 -36.515625 L 0.953125 -36.515625 L 0.953125 -40 L 33.40625 -40 Z M 33.40625 -36.515625 "/></g></g></g><g fill="#9b794e" fill-opacity="1"><g transform="translate(155.145234, 50.389963)"><g><path d="M 36.5625 -40 L 36.5625 0 L 32.671875 0 L 32.671875 -18.703125 L 8.953125 -18.703125 L 8.953125 0 L 5.015625 0 L 5.015625 -40 L 8.953125 -40 L 8.953125 -22.203125 L 32.671875 -22.203125 L 32.671875 -40 Z M 36.5625 -40 "/></g></g></g><g fill="#9b794e" fill-opacity="1"><g transform="translate(219.232972, 50.389963)"><g><path d="M 5.015625 0 L 5.015625 -40 L 8.953125 -40 L 8.953125 0 Z M 5.015625 0 "/></g></g></g><g fill="#9b794e" fill-opacity="1"><g transform="translate(255.730191, 50.389963)"><g><path d="M 5.015625 0 L 5.015625 -40 L 21.921875 -40 C 23.648438 -40 25.234375 -39.632812 26.671875 -38.90625 C 28.117188 -38.175781 29.367188 -37.21875 30.421875 -36.03125 C 31.472656 -34.84375 32.289062 -33.5 32.875 -32 C 33.457031 -30.5 33.75 -28.976562 33.75 -27.4375 C 33.75 -25.96875 33.53125 -24.566406 33.09375 -23.234375 C 32.664062 -21.898438 32.066406 -20.695312 31.296875 -19.625 C 30.523438 -18.5625 29.59375 -17.660156 28.5 -16.921875 C 27.414062 -16.191406 26.195312 -15.695312 24.84375 -15.4375 L 34.65625 0 L 30.203125 0 L 20.796875 -14.765625 L 8.953125 -14.765625 L 8.953125 0 Z M 8.953125 -18.25 L 22.03125 -18.25 C 23.195312 -18.25 24.257812 -18.503906 25.21875 -19.015625 C 26.175781 -19.523438 26.988281 -20.210938 27.65625 -21.078125 C 28.332031 -21.941406 28.859375 -22.914062 29.234375 -24 C 29.617188 -25.09375 29.8125 -26.238281 29.8125 -27.4375 C 29.8125 -28.644531 29.59375 -29.800781 29.15625 -30.90625 C 28.726562 -32.007812 28.144531 -32.972656 27.40625 -33.796875 C 26.675781 -34.628906 25.8125 -35.289062 24.8125 -35.78125 C 23.820312 -36.269531 22.78125 -36.515625 21.6875 -36.515625 L 8.953125 -36.515625 Z M 8.953125 -18.25 "/></g></g></g><g fill="#9b794e" fill-opacity="1"><g transform="translate(315.03183, 50.389963)"><g><path d="M 5.015625 0 L 5.015625 -40 L 18.59375 -40 C 21.78125 -40 24.566406 -39.472656 26.953125 -38.421875 C 29.335938 -37.367188 31.328125 -35.941406 32.921875 -34.140625 C 34.523438 -32.335938 35.726562 -30.222656 36.53125 -27.796875 C 37.34375 -25.378906 37.75 -22.800781 37.75 -20.0625 C 37.75 -17.019531 37.296875 -14.265625 36.390625 -11.796875 C 35.492188 -9.335938 34.207031 -7.234375 32.53125 -5.484375 C 30.863281 -3.742188 28.851562 -2.394531 26.5 -1.4375 C 24.15625 -0.476562 21.519531 0 18.59375 0 Z M 33.8125 -20.0625 C 33.8125 -22.46875 33.472656 -24.671875 32.796875 -26.671875 C 32.117188 -28.679688 31.128906 -30.421875 29.828125 -31.890625 C 28.535156 -33.359375 26.945312 -34.492188 25.0625 -35.296875 C 23.1875 -36.109375 21.03125 -36.515625 18.59375 -36.515625 L 8.953125 -36.515625 L 8.953125 -3.5 L 18.59375 -3.5 C 21.070312 -3.5 23.257812 -3.921875 25.15625 -4.765625 C 27.050781 -5.609375 28.632812 -6.769531 29.90625 -8.25 C 31.1875 -9.738281 32.15625 -11.488281 32.8125 -13.5 C 33.476562 -15.507812 33.8125 -17.695312 33.8125 -20.0625 Z M 33.8125 -20.0625 "/></g></g></g><g fill="#9b794e" fill-opacity="1"><g transform="translate(377.824478, 50.389963)"><g/></g></g><g fill="#9b794e" fill-opacity="1"><g transform="translate(414.715846, 50.389963)"><g><path d="M 5.015625 0 L 5.015625 -40 L 21.578125 -40 C 23.304688 -40 24.894531 -39.632812 26.34375 -38.90625 C 27.789062 -38.175781 29.039062 -37.21875 30.09375 -36.03125 C 31.144531 -34.84375 31.96875 -33.5 32.5625 -32 C 33.164062 -30.5 33.46875 -28.976562 33.46875 -27.4375 C 33.46875 -25.78125 33.1875 -24.191406 32.625 -22.671875 C 32.0625 -21.148438 31.269531 -19.804688 30.25 -18.640625 C 29.238281 -17.484375 28.03125 -16.546875 26.625 -15.828125 C 25.21875 -15.117188 23.648438 -14.765625 21.921875 -14.765625 L 8.953125 -14.765625 L 8.953125 0 Z M 8.953125 -18.25 L 21.75 -18.25 C 22.914062 -18.25 23.976562 -18.503906 24.9375 -19.015625 C 25.894531 -19.523438 26.707031 -20.203125 27.375 -21.046875 C 28.050781 -21.890625 28.578125 -22.863281 28.953125 -23.96875 C 29.335938 -25.082031 29.53125 -26.238281 29.53125 -27.4375 C 29.53125 -28.675781 29.3125 -29.847656 28.875 -30.953125 C 28.445312 -32.066406 27.863281 -33.035156 27.125 -33.859375 C 26.394531 -34.691406 25.53125 -35.34375 24.53125 -35.8125 C 23.539062 -36.28125 22.5 -36.515625 21.40625 -36.515625 L 8.953125 -36.515625 Z M 8.953125 -18.25 "/></g></g></g><g fill="#9b794e" fill-opacity="1"><g transform="translate(472.27196, 50.389963)"><g><path d="M 31.890625 -3.5 L 31.890625 0 L 5.015625 0 L 5.015625 -40 L 31.390625 -40 L 31.390625 -36.515625 L 8.953125 -36.515625 L 8.953125 -22.09375 L 28.515625 -22.09375 L 28.515625 -18.765625 L 8.953125 -18.765625 L 8.953125 -3.5 Z M 31.890625 -3.5 "/></g></g></g><g fill="#9b794e" fill-opacity="1"><g transform="translate(529.096065, 50.389963)"><g><path d="M 5.015625 0 L 5.015625 -40 L 21.921875 -40 C 23.648438 -40 25.234375 -39.632812 26.671875 -38.90625 C 28.117188 -38.175781 29.367188 -37.21875 30.421875 -36.03125 C 31.472656 -34.84375 32.289062 -33.5 32.875 -32 C 33.457031 -30.5 33.75 -28.976562 33.75 -27.4375 C 33.75 -25.96875 33.53125 -24.566406 33.09375 -23.234375 C 32.664062 -21.898438 32.066406 -20.695312 31.296875 -19.625 C 30.523438 -18.5625 29.59375 -17.660156 28.5 -16.921875 C 27.414062 -16.191406 26.195312 -15.695312 24.84375 -15.4375 L 34.65625 0 L 30.203125 0 L 20.796875 -14.765625 L 8.953125 -14.765625 L 8.953125 0 Z M 8.953125 -18.25 L 22.03125 -18.25 C 23.195312 -18.25 24.257812 -18.503906 25.21875 -19.015625 C 26.175781 -19.523438 26.988281 -20.210938 27.65625 -21.078125 C 28.332031 -21.941406 28.859375 -22.914062 29.234375 -24 C 29.617188 -25.09375 29.8125 -26.238281 29.8125 -27.4375 C 29.8125 -28.644531 29.59375 -29.800781 29.15625 -30.90625 C 28.726562 -32.007812 28.144531 -32.972656 27.40625 -33.796875 C 26.675781 -34.628906 25.8125 -35.289062 24.8125 -35.78125 C 23.820312 -36.269531 22.78125 -36.515625 21.6875 -36.515625 L 8.953125 -36.515625 Z M 8.953125 -18.25 "/></g></g></g><g fill="#9b794e" fill-opacity="1"><g transform="translate(588.397704, 50.389963)"><g><path d="M 28.390625 -32.515625 C 27.265625 -33.785156 25.765625 -34.816406 23.890625 -35.609375 C 22.015625 -36.398438 19.875 -36.796875 17.46875 -36.796875 C 13.9375 -36.796875 11.363281 -36.128906 9.75 -34.796875 C 8.132812 -33.460938 7.328125 -31.648438 7.328125 -29.359375 C 7.328125 -28.148438 7.539062 -27.160156 7.96875 -26.390625 C 8.40625 -25.617188 9.070312 -24.953125 9.96875 -24.390625 C 10.875 -23.828125 12.03125 -23.335938 13.4375 -22.921875 C 14.84375 -22.515625 16.503906 -22.101562 18.421875 -21.6875 C 20.566406 -21.238281 22.492188 -20.734375 24.203125 -20.171875 C 25.910156 -19.609375 27.363281 -18.90625 28.5625 -18.0625 C 29.769531 -17.21875 30.691406 -16.191406 31.328125 -14.984375 C 31.960938 -13.785156 32.28125 -12.285156 32.28125 -10.484375 C 32.28125 -8.640625 31.921875 -7.039062 31.203125 -5.6875 C 30.492188 -4.332031 29.5 -3.203125 28.21875 -2.296875 C 26.945312 -1.398438 25.425781 -0.734375 23.65625 -0.296875 C 21.894531 0.128906 19.960938 0.34375 17.859375 0.34375 C 11.660156 0.34375 6.304688 -1.59375 1.796875 -5.46875 L 3.78125 -8.671875 C 4.488281 -7.921875 5.335938 -7.207031 6.328125 -6.53125 C 7.328125 -5.851562 8.4375 -5.257812 9.65625 -4.75 C 10.882812 -4.25 12.191406 -3.859375 13.578125 -3.578125 C 14.960938 -3.296875 16.425781 -3.15625 17.96875 -3.15625 C 21.164062 -3.15625 23.65625 -3.726562 25.4375 -4.875 C 27.21875 -6.019531 28.109375 -7.753906 28.109375 -10.078125 C 28.109375 -11.316406 27.851562 -12.359375 27.34375 -13.203125 C 26.84375 -14.054688 26.082031 -14.789062 25.0625 -15.40625 C 24.050781 -16.03125 22.796875 -16.566406 21.296875 -17.015625 C 19.796875 -17.460938 18.050781 -17.914062 16.0625 -18.375 C 13.957031 -18.851562 12.113281 -19.351562 10.53125 -19.875 C 8.957031 -20.40625 7.625 -21.066406 6.53125 -21.859375 C 5.445312 -22.648438 4.628906 -23.597656 4.078125 -24.703125 C 3.535156 -25.816406 3.265625 -27.179688 3.265625 -28.796875 C 3.265625 -30.628906 3.613281 -32.269531 4.3125 -33.71875 C 5.007812 -35.164062 5.992188 -36.367188 7.265625 -37.328125 C 8.546875 -38.285156 10.050781 -39.015625 11.78125 -39.515625 C 13.507812 -40.023438 15.421875 -40.28125 17.515625 -40.28125 C 20.179688 -40.28125 22.554688 -39.875 24.640625 -39.0625 C 26.734375 -38.257812 28.625 -37.128906 30.3125 -35.671875 Z M 28.390625 -32.515625 "/></g></g></g><g fill="#9b794e" fill-opacity="1"><g transform="translate(645.109236, 50.389963)"><g><path d="M 21.125 0.28125 C 18.34375 0.28125 15.796875 -0.289062 13.484375 -1.4375 C 11.179688 -2.582031 9.203125 -4.101562 7.546875 -6 C 5.898438 -7.894531 4.625 -10.0625 3.71875 -12.5 C 2.8125 -14.945312 2.359375 -17.445312 2.359375 -20 C 2.359375 -22.664062 2.835938 -25.21875 3.796875 -27.65625 C 4.753906 -30.101562 6.078125 -32.265625 7.765625 -34.140625 C 9.460938 -36.023438 11.457031 -37.519531 13.75 -38.625 C 16.039062 -39.726562 18.519531 -40.28125 21.1875 -40.28125 C 23.96875 -40.28125 26.507812 -39.6875 28.8125 -38.5 C 31.125 -37.320312 33.097656 -35.773438 34.734375 -33.859375 C 36.367188 -31.941406 37.632812 -29.769531 38.53125 -27.34375 C 39.4375 -24.925781 39.890625 -22.460938 39.890625 -19.953125 C 39.890625 -17.273438 39.410156 -14.71875 38.453125 -12.28125 C 37.492188 -9.84375 36.175781 -7.691406 34.5 -5.828125 C 32.832031 -3.972656 30.851562 -2.488281 28.5625 -1.375 C 26.269531 -0.269531 23.789062 0.28125 21.125 0.28125 Z M 6.3125 -20 C 6.3125 -17.820312 6.664062 -15.726562 7.375 -13.71875 C 8.09375 -11.707031 9.109375 -9.921875 10.421875 -8.359375 C 11.734375 -6.804688 13.289062 -5.566406 15.09375 -4.640625 C 16.894531 -3.722656 18.90625 -3.265625 21.125 -3.265625 C 23.382812 -3.265625 25.429688 -3.753906 27.265625 -4.734375 C 29.109375 -5.710938 30.664062 -6.988281 31.9375 -8.5625 C 33.21875 -10.144531 34.207031 -11.929688 34.90625 -13.921875 C 35.601562 -15.910156 35.953125 -17.9375 35.953125 -20 C 35.953125 -22.175781 35.582031 -24.269531 34.84375 -26.28125 C 34.113281 -28.289062 33.09375 -30.066406 31.78125 -31.609375 C 30.46875 -33.148438 28.90625 -34.378906 27.09375 -35.296875 C 25.289062 -36.222656 23.300781 -36.6875 21.125 -36.6875 C 18.875 -36.6875 16.828125 -36.207031 14.984375 -35.25 C 13.148438 -34.289062 11.59375 -33.019531 10.3125 -31.4375 C 9.03125 -29.863281 8.039062 -28.078125 7.34375 -26.078125 C 6.65625 -24.085938 6.3125 -22.0625 6.3125 -20 Z M 6.3125 -20 "/></g></g></g><g fill="#9b794e" fill-opacity="1"><g transform="translate(709.928872, 50.389963)"><g><path d="M 8.953125 -32.671875 L 8.953125 0 L 5.015625 0 L 5.015625 -40 L 8.0625 -40 L 34.53125 -6.703125 L 34.53125 -39.953125 L 38.484375 -39.953125 L 38.484375 0 L 35.046875 0 Z M 8.953125 -32.671875 "/></g></g></g><g fill="#9b794e" fill-opacity="1"><g transform="translate(775.931065, 50.389963)"><g/></g></g><g fill="#9b794e" fill-opacity="1"><g transform="translate(812.822395, 50.389963)"><g><path d="M 5.015625 0 L 5.015625 -40 L 21.578125 -40 C 23.304688 -40 24.894531 -39.632812 26.34375 -38.90625 C 27.789062 -38.175781 29.039062 -37.21875 30.09375 -36.03125 C 31.144531 -34.84375 31.96875 -33.5 32.5625 -32 C 33.164062 -30.5 33.46875 -28.976562 33.46875 -27.4375 C 33.46875 -25.78125 33.1875 -24.191406 32.625 -22.671875 C 32.0625 -21.148438 31.269531 -19.804688 30.25 -18.640625 C 29.238281 -17.484375 28.03125 -16.546875 26.625 -15.828125 C 25.21875 -15.117188 23.648438 -14.765625 21.921875 -14.765625 L 8.953125 -14.765625 L 8.953125 0 Z M 8.953125 -18.25 L 21.75 -18.25 C 22.914062 -18.25 23.976562 -18.503906 24.9375 -19.015625 C 25.894531 -19.523438 26.707031 -20.203125 27.375 -21.046875 C 28.050781 -21.890625 28.578125 -22.863281 28.953125 -23.96875 C 29.335938 -25.082031 29.53125 -26.238281 29.53125 -27.4375 C 29.53125 -28.675781 29.3125 -29.847656 28.875 -30.953125 C 28.445312 -32.066406 27.863281 -33.035156 27.125 -33.859375 C 26.394531 -34.691406 25.53125 -35.34375 24.53125 -35.8125 C 23.539062 -36.28125 22.5 -36.515625 21.40625 -36.515625 L 8.953125 -36.515625 Z M 8.953125 -18.25 "/></g></g></g><g fill="#9b794e" fill-opacity="1"><g transform="translate(870.378547, 50.389963)"><g><path d="M 31.890625 -3.5 L 31.890625 0 L 5.015625 0 L 5.015625 -40 L 31.390625 -40 L 31.390625 -36.515625 L 8.953125 -36.515625 L 8.953125 -22.09375 L 28.515625 -22.09375 L 28.515625 -18.765625 L 8.953125 -18.765625 L 8.953125 -3.5 Z M 31.890625 -3.5 "/></g></g></g><g fill="#9b794e" fill-opacity="1"><g transform="translate(927.202651, 50.389963)"><g><path d="M 5.015625 0 L 5.015625 -40 L 21.921875 -40 C 23.648438 -40 25.234375 -39.632812 26.671875 -38.90625 C 28.117188 -38.175781 29.367188 -37.21875 30.421875 -36.03125 C 31.472656 -34.84375 32.289062 -33.5 32.875 -32 C 33.457031 -30.5 33.75 -28.976562 33.75 -27.4375 C 33.75 -25.96875 33.53125 -24.566406 33.09375 -23.234375 C 32.664062 -21.898438 32.066406 -20.695312 31.296875 -19.625 C 30.523438 -18.5625 29.59375 -17.660156 28.5 -16.921875 C 27.414062 -16.191406 26.195312 -15.695312 24.84375 -15.4375 L 34.65625 0 L 30.203125 0 L 20.796875 -14.765625 L 8.953125 -14.765625 L 8.953125 0 Z M 8.953125 -18.25 L 22.03125 -18.25 C 23.195312 -18.25 24.257812 -18.503906 25.21875 -19.015625 C 26.175781 -19.523438 26.988281 -20.210938 27.65625 -21.078125 C 28.332031 -21.941406 28.859375 -22.914062 29.234375 -24 C 29.617188 -25.09375 29.8125 -26.238281 29.8125 -27.4375 C 29.8125 -28.644531 29.59375 -29.800781 29.15625 -30.90625 C 28.726562 -32.007812 28.144531 -32.972656 27.40625 -33.796875 C 26.675781 -34.628906 25.8125 -35.289062 24.8125 -35.78125 C 23.820312 -36.269531 22.78125 -36.515625 21.6875 -36.515625 L 8.953125 -36.515625 Z M 8.953125 -18.25 "/></g></g></g><g fill="#9b794e" fill-opacity="1"><g transform="translate(986.50429, 50.389963)"><g><path d="M 28.390625 -32.515625 C 27.265625 -33.785156 25.765625 -34.816406 23.890625 -35.609375 C 22.015625 -36.398438 19.875 -36.796875 17.46875 -36.796875 C 13.9375 -36.796875 11.363281 -36.128906 9.75 -34.796875 C 8.132812 -33.460938 7.328125 -31.648438 7.328125 -29.359375 C 7.328125 -28.148438 7.539062 -27.160156 7.96875 -26.390625 C 8.40625 -25.617188 9.070312 -24.953125 9.96875 -24.390625 C 10.875 -23.828125 12.03125 -23.335938 13.4375 -22.921875 C 14.84375 -22.515625 16.503906 -22.101562 18.421875 -21.6875 C 20.566406 -21.238281 22.492188 -20.734375 24.203125 -20.171875 C 25.910156 -19.609375 27.363281 -18.90625 28.5625 -18.0625 C 29.769531 -17.21875 30.691406 -16.191406 31.328125 -14.984375 C 31.960938 -13.785156 32.28125 -12.285156 32.28125 -10.484375 C 32.28125 -8.640625 31.921875 -7.039062 31.203125 -5.6875 C 30.492188 -4.332031 29.5 -3.203125 28.21875 -2.296875 C 26.945312 -1.398438 25.425781 -0.734375 23.65625 -0.296875 C 21.894531 0.128906 19.960938 0.34375 17.859375 0.34375 C 11.660156 0.34375 6.304688 -1.59375 1.796875 -5.46875 L 3.78125 -8.671875 C 4.488281 -7.921875 5.335938 -7.207031 6.328125 -6.53125 C 7.328125 -5.851562 8.4375 -5.257812 9.65625 -4.75 C 10.882812 -4.25 12.191406 -3.859375 13.578125 -3.578125 C 14.960938 -3.296875 16.425781 -3.15625 17.96875 -3.15625 C 21.164062 -3.15625 23.65625 -3.726562 25.4375 -4.875 C 27.21875 -6.019531 28.109375 -7.753906 28.109375 -10.078125 C 28.109375 -11.316406 27.851562 -12.359375 27.34375 -13.203125 C 26.84375 -14.054688 26.082031 -14.789062 25.0625 -15.40625 C 24.050781 -16.03125 22.796875 -16.566406 21.296875 -17.015625 C 19.796875 -17.460938 18.050781 -17.914062 16.0625 -18.375 C 13.957031 -18.851562 12.113281 -19.351562 10.53125 -19.875 C 8.957031 -20.40625 7.625 -21.066406 6.53125 -21.859375 C 5.445312 -22.648438 4.628906 -23.597656 4.078125 -24.703125 C 3.535156 -25.816406 3.265625 -27.179688 3.265625 -28.796875 C 3.265625 -30.628906 3.613281 -32.269531 4.3125 -33.71875 C 5.007812 -35.164062 5.992188 -36.367188 7.265625 -37.328125 C 8.546875 -38.285156 10.050781 -39.015625 11.78125 -39.515625 C 13.507812 -40.023438 15.421875 -40.28125 17.515625 -40.28125 C 20.179688 -40.28125 22.554688 -39.875 24.640625 -39.0625 C 26.734375 -38.257812 28.625 -37.128906 30.3125 -35.671875 Z M 28.390625 -32.515625 "/></g></g></g><g fill="#9b794e" fill-opacity="1"><g transform="translate(1043.215823, 50.389963)"><g><path d="M 5.015625 0 L 5.015625 -40 L 21.578125 -40 C 23.304688 -40 24.894531 -39.632812 26.34375 -38.90625 C 27.789062 -38.175781 29.039062 -37.21875 30.09375 -36.03125 C 31.144531 -34.84375 31.96875 -33.5 32.5625 -32 C 33.164062 -30.5 33.46875 -28.976562 33.46875 -27.4375 C 33.46875 -25.78125 33.1875 -24.191406 32.625 -22.671875 C 32.0625 -21.148438 31.269531 -19.804688 30.25 -18.640625 C 29.238281 -17.484375 28.03125 -16.546875 26.625 -15.828125 C 25.21875 -15.117188 23.648438 -14.765625 21.921875 -14.765625 L 8.953125 -14.765625 L 8.953125 0 Z M 8.953125 -18.25 L 21.75 -18.25 C 22.914062 -18.25 23.976562 -18.503906 24.9375 -19.015625 C 25.894531 -19.523438 26.707031 -20.203125 27.375 -21.046875 C 28.050781 -21.890625 28.578125 -22.863281 28.953125 -23.96875 C 29.335938 -25.082031 29.53125 -26.238281 29.53125 -27.4375 C 29.53125 -28.675781 29.3125 -29.847656 28.875 -30.953125 C 28.445312 -32.066406 27.863281 -33.035156 27.125 -33.859375 C 26.394531 -34.691406 25.53125 -35.34375 24.53125 -35.8125 C 23.539062 -36.28125 22.5 -36.515625 21.40625 -36.515625 L 8.953125 -36.515625 Z M 8.953125 -18.25 "/></g></g></g><g fill="#9b794e" fill-opacity="1"><g transform="translate(1100.7719, 50.389963)"><g><path d="M 31.890625 -3.5 L 31.890625 0 L 5.015625 0 L 5.015625 -40 L 31.390625 -40 L 31.390625 -36.515625 L 8.953125 -36.515625 L 8.953125 -22.09375 L 28.515625 -22.09375 L 28.515625 -18.765625 L 8.953125 -18.765625 L 8.953125 -3.5 Z M 31.890625 -3.5 "/></g></g></g><g fill="#9b794e" fill-opacity="1"><g transform="translate(1157.596004, 50.389963)"><g><path d="M 2.359375 -20.28125 C 2.359375 -22.6875 2.78125 -25.082031 3.625 -27.46875 C 4.476562 -29.851562 5.710938 -31.984375 7.328125 -33.859375 C 8.941406 -35.742188 10.929688 -37.273438 13.296875 -38.453125 C 15.660156 -39.640625 18.347656 -40.234375 21.359375 -40.234375 C 24.921875 -40.234375 27.96875 -39.425781 30.5 -37.8125 C 33.039062 -36.195312 34.910156 -34.09375 36.109375 -31.5 L 33.015625 -29.578125 C 32.378906 -30.890625 31.597656 -31.992188 30.671875 -32.890625 C 29.753906 -33.796875 28.769531 -34.53125 27.71875 -35.09375 C 26.664062 -35.664062 25.578125 -36.070312 24.453125 -36.3125 C 23.328125 -36.5625 22.21875 -36.6875 21.125 -36.6875 C 18.71875 -36.6875 16.59375 -36.195312 14.75 -35.21875 C 12.914062 -34.238281 11.367188 -32.957031 10.109375 -31.375 C 8.847656 -29.800781 7.898438 -28.023438 7.265625 -26.046875 C 6.628906 -24.078125 6.3125 -22.082031 6.3125 -20.0625 C 6.3125 -17.84375 6.695312 -15.71875 7.46875 -13.6875 C 8.238281 -11.664062 9.289062 -9.875 10.625 -8.3125 C 11.957031 -6.75 13.535156 -5.507812 15.359375 -4.59375 C 17.179688 -3.675781 19.160156 -3.21875 21.296875 -3.21875 C 22.421875 -3.21875 23.570312 -3.359375 24.75 -3.640625 C 25.9375 -3.921875 27.082031 -4.367188 28.1875 -4.984375 C 29.300781 -5.609375 30.328125 -6.378906 31.265625 -7.296875 C 32.203125 -8.210938 32.992188 -9.332031 33.640625 -10.65625 L 36.90625 -8.953125 C 36.269531 -7.453125 35.367188 -6.128906 34.203125 -4.984375 C 33.035156 -3.835938 31.738281 -2.867188 30.3125 -2.078125 C 28.882812 -1.296875 27.367188 -0.695312 25.765625 -0.28125 C 24.171875 0.132812 22.609375 0.34375 21.078125 0.34375 C 18.328125 0.34375 15.804688 -0.253906 13.515625 -1.453125 C 11.222656 -2.660156 9.25 -4.234375 7.59375 -6.171875 C 5.945312 -8.109375 4.660156 -10.304688 3.734375 -12.765625 C 2.816406 -15.222656 2.359375 -17.726562 2.359375 -20.28125 Z M 2.359375 -20.28125 "/></g></g></g><g fill="#9b794e" fill-opacity="1"><g transform="translate(1218.755774, 50.389963)"><g><path d="M 33.40625 -36.515625 L 19.15625 -36.515625 L 19.15625 0 L 15.21875 0 L 15.21875 -36.515625 L 0.953125 -36.515625 L 0.953125 -40 L 33.40625 -40 Z M 33.40625 -36.515625 "/></g></g></g><g fill="#9b794e" fill-opacity="1"><g transform="translate(1275.636199, 50.389963)"><g><path d="M 5.015625 0 L 5.015625 -40 L 8.953125 -40 L 8.953125 0 Z M 5.015625 0 "/></g></g></g><g fill="#9b794e" fill-opacity="1"><g transform="translate(1312.133419, 50.389963)"><g><path d="M 4.84375 -40 L 19.15625 -4.90625 L 33.40625 -40 L 37.53125 -40 L 20.84375 0 L 17.40625 0 L 0.734375 -40 Z M 4.84375 -40 "/></g></g></g><g fill="#9b794e" fill-opacity="1"><g transform="translate(1372.899003, 50.389963)"><g><path d="M 31.890625 -3.5 L 31.890625 0 L 5.015625 0 L 5.015625 -40 L 31.390625 -40 L 31.390625 -36.515625 L 8.953125 -36.515625 L 8.953125 -22.09375 L 28.515625 -22.09375 L 28.515625 -18.765625 L 8.953125 -18.765625 L 8.953125 -3.5 Z M 31.890625 -3.5 "/></g></g></g></g></g></svg>